<?xml version="1.0" encoding="UTF-8" standalone="no"?>
<!-- Created with Inkscape (http://www.inkscape.org/) -->

<svg
   xmlns:dc="http://purl.org/dc/elements/1.1/"
   xmlns:cc="http://creativecommons.org/ns#"
   xmlns:rdf="http://www.w3.org/1999/02/22-rdf-syntax-ns#"
   xmlns:svg="http://www.w3.org/2000/svg"
   xmlns="http://www.w3.org/2000/svg"
   xmlns:sodipodi="http://sodipodi.sourceforge.net/DTD/sodipodi-0.dtd"
   xmlns:inkscape="http://www.inkscape.org/namespaces/inkscape"
   width="210mm"
   height="297mm"
   viewBox="0 0 210 297"
   version="1.1"
   id="svg8"
   inkscape:version="0.92.1 r15371"
   sodipodi:docname="q1a1.svg">
  <defs
     id="defs2">
    <inkscape:path-effect
       effect="bspline"
       id="path-effect40"
       is_visible="true"
       weight="33.333333"
       steps="2"
       helper_size="0"
       apply_no_weight="true"
       apply_with_weight="true"
       only_selected="false" />
    <inkscape:path-effect
       effect="bspline"
       id="path-effect36"
       is_visible="true"
       weight="33.333333"
       steps="2"
       helper_size="0"
       apply_no_weight="true"
       apply_with_weight="true"
       only_selected="false" />
    <inkscape:path-effect
       effect="bspline"
       id="path-effect32"
       is_visible="true"
       weight="33.333333"
       steps="2"
       helper_size="0"
       apply_no_weight="true"
       apply_with_weight="true"
       only_selected="false" />
    <inkscape:path-effect
       effect="bspline"
       id="path-effect28"
       is_visible="true"
       weight="33.333333"
       steps="2"
       helper_size="0"
       apply_no_weight="true"
       apply_with_weight="true"
       only_selected="false" />
    <inkscape:path-effect
       effect="bspline"
       id="path-effect24"
       is_visible="true"
       weight="33.333333"
       steps="2"
       helper_size="0"
       apply_no_weight="true"
       apply_with_weight="true"
       only_selected="false" />
    <inkscape:path-effect
       effect="bspline"
       id="path-effect20"
       is_visible="true"
       weight="33.333333"
       steps="2"
       helper_size="0"
       apply_no_weight="true"
       apply_with_weight="true"
       only_selected="false" />
    <inkscape:path-effect
       effect="bspline"
       id="path-effect16"
       is_visible="true"
       weight="33.333333"
       steps="2"
       helper_size="0"
       apply_no_weight="true"
       apply_with_weight="true"
       only_selected="false" />
    <inkscape:path-effect
       effect="bspline"
       id="path-effect12"
       is_visible="true"
       weight="33.333333"
       steps="2"
       helper_size="0"
       apply_no_weight="true"
       apply_with_weight="true"
       only_selected="false" />
  </defs>
  <sodipodi:namedview
     id="base"
     pagecolor="#ffffff"
     bordercolor="#666666"
     borderopacity="1.0"
     inkscape:pageopacity="0.0"
     inkscape:pageshadow="2"
     inkscape:zoom="0.7"
     inkscape:cx="128.10451"
     inkscape:cy="575.51911"
     inkscape:document-units="mm"
     inkscape:current-layer="layer1"
     showgrid="false"
     inkscape:window-width="1920"
     inkscape:window-height="1001"
     inkscape:window-x="0"
     inkscape:window-y="30"
     inkscape:window-maximized="1" />
  <metadata
     id="metadata5">
    <rdf:RDF>
      <cc:Work
         rdf:about="">
        <dc:format>image/svg+xml</dc:format>
        <dc:type
           rdf:resource="http://purl.org/dc/dcmitype/StillImage" />
        <dc:title></dc:title>
      </cc:Work>
    </rdf:RDF>
  </metadata>
  <g
     inkscape:label="Layer 1"
     inkscape:groupmode="layer"
     id="layer1">
    <path
       style="fill:none;stroke:#000000;stroke-width:0.26458332px;stroke-linecap:butt;stroke-linejoin:miter;stroke-opacity:1"
       d="m 40.065475,40.354165 c 0,-0.506614 0,-1.010581 0.06432,-1.261242 0.06432,-0.250661 0.190311,-0.250661 0.442295,-0.250661 0.251984,0 0.629962,0 0.817627,0.06167 0.187665,0.06167 0.187665,0.187665 0.187665,0.313657 0,0.125992 0,0.251983 0,0.503967 0,0.251984 0,0.62996 0,1.010584"
       id="path10"
       inkscape:connector-curvature="0"
       inkscape:path-effect="#path-effect12"
       inkscape:original-d="m 40.065475,40.354165 c 0.0026,-0.506614 0.0026,-1.010581 0,-1.511903 0.128638,-0.0026 0.25463,-0.0026 0.377976,0 0.380622,-0.0026 0.7586,-0.0026 1.13393,0 0.0026,0.123346 0.0026,0.249338 0,0.377975 0.0026,0.123347 0.0026,0.249338 0,0.377976 0.0026,0.37533 0.0026,0.753306 0,1.13393"
       inkscape:export-filename="/home/jack/Github/COMP9020_LaTex/Ass2/Graphics/q1a1.png"
       inkscape:export-xdpi="96"
       inkscape:export-ydpi="96" />
    <path
       style="fill:none;stroke:#000000;stroke-width:0.26458332px;stroke-linecap:butt;stroke-linejoin:miter;stroke-opacity:1"
       d="m 40.443451,66.434522 c 0.50397,0.503969 1.007938,1.007938 1.259922,1.384591 0.251984,0.376653 0.251984,0.628637 0.06432,0.755952 -0.187665,0.127315 -0.565641,0.127315 -0.817626,0.127315 -0.251985,0 -0.377977,0 -0.503969,0 -0.125992,0 -0.251984,0 -0.251984,0 0,0 0.125992,0 0.249338,0"
       id="path14"
       inkscape:connector-curvature="0"
       inkscape:path-effect="#path-effect16"
       inkscape:original-d="m 40.443451,66.434522 c 0.506614,0.501325 1.010584,1.005292 1.511906,1.511906 0.0026,0.249338 0.0026,0.501322 0,0.755952 -0.37533,-0.0026 -0.753306,-0.0026 -1.13393,0 -0.123346,-0.0026 -0.249338,-0.0026 -0.377976,0 -0.123346,-0.0026 -0.249338,-0.0026 -0.377976,0 0.128638,-0.0026 0.25463,-0.0026 0.377976,0"
       inkscape:export-filename="/home/jack/Github/COMP9020_LaTex/Ass2/Graphics/q1a1.png"
       inkscape:export-xdpi="96"
       inkscape:export-ydpi="96" />
    <path
       style="fill:none;stroke:#000000;stroke-width:0.26458332px;stroke-linecap:butt;stroke-linejoin:miter;stroke-opacity:1"
       d="m 40.443451,66.434522 c 0.505026,0.252513 1.008993,0.504497 1.26045,0.565907 0.251456,0.06141 0.251456,-0.06458 0.251456,-0.190575 0,-0.125994 0,-0.251986 0,-0.50397 0,-0.251984 0,-0.629959 0,-1.637896 0,-1.007937 0,-2.645832 0,-3.842757 0,-1.196925 0,-1.952879 -0.06326,-2.456053 -0.06326,-0.503174 -0.189253,-0.755157 -0.251985,-1.259919 -0.06273,-0.504762 -0.06273,-1.260716 -0.125727,-1.700365 -0.063,-0.439649 -0.188988,-0.565641 -0.251984,-1.070931 -0.063,-0.505291 -0.063,-1.387237 -0.063,-2.584162 0,-1.196925 0,-2.708828 0,-4.472717 0,-1.76389 0,-3.779761 0,-4.976686 0,-1.196925 0,-1.574901 0,-1.889882 0,-0.314981 0,-0.566965 -0.187462,-0.566659 -0.187463,3.05e-4 -0.565439,0.252289 -0.313384,0.189626 0.252055,-0.06266 1.133999,-0.440638 1.70069,-0.628941 0.566691,-0.188304 0.818675,-0.188304 1.259647,-0.188304 0.440972,0 1.070932,0 2.330853,0 1.259921,0 3.149802,0 6.99256,0 3.842757,0 9.638392,0 13.292162,0 3.65377,0 5.165675,0 6.3626,0 1.196924,0 2.078869,0 2.646098,-0.06379 0.567228,-0.06379 0.819212,-0.189781 1.007936,-0.251984 0.188723,-0.0622 0.314715,-0.0622 0.629854,-0.252301 0.315139,-0.1901 0.819107,-0.568076 1.320112,-0.94383"
       id="path18"
       inkscape:connector-curvature="0"
       inkscape:path-effect="#path-effect20"
       inkscape:original-d="m 40.443451,66.434522 c 0.506614,0.249338 1.010581,0.501322 1.511906,0.755954 0.0026,-0.128637 0.0026,-0.254629 0,-0.377978 0.0026,-0.128638 0.0026,-0.25463 0,-0.377976 0.0026,-0.380622 0.0026,-0.758597 0,-1.133927 0.0026,-1.640544 0.0026,-3.278439 0,-4.913691 0.0026,-0.758598 0.0026,-1.514552 0,-2.267858 -0.123346,-0.254629 -0.249338,-0.506613 -0.377976,-0.755951 0.0026,-0.758598 0.0026,-1.514552 0,-2.267858 -0.123346,-0.128638 -0.249338,-0.25463 -0.377976,-0.377976 0.0026,-0.884589 0.0026,-1.766535 0,-2.645833 0.0026,-1.514552 0.0026,-3.026455 0,-4.535715 0.0026,-2.018519 0.0026,-4.03439 0,-6.047618 0.0026,-0.380622 0.0026,-0.758598 0,-1.13393 0.0026,-0.25463 0.0026,-0.506614 0,-0.755952 -0.375332,0.249338 -0.753308,0.501322 -1.13393,0.755952 0.884591,-0.380622 1.766536,-0.758597 2.645835,-1.133927 0.25463,-0.0026 0.506614,-0.0026 0.755952,0 0.632606,-0.0026 1.262566,-0.0026 1.889881,0 1.892527,-0.0026 3.782408,-0.0026 5.669643,0 5.79828,-0.0026 11.593915,-0.0026 17.386905,0 1.51455,-0.0026 3.026455,-0.0026 4.535714,0 0.88459,-0.0026 1.766535,-0.0026 2.645833,0 0.25463,-0.128638 0.506614,-0.25463 0.755953,-0.377976 0.128637,-0.0026 0.254629,-0.0026 0.377976,0 0.506614,-0.380622 1.010582,-0.758598 1.511904,-1.133929"
       inkscape:export-filename="/home/jack/Github/COMP9020_LaTex/Ass2/Graphics/q1a1.png"
       inkscape:export-xdpi="96"
       inkscape:export-ydpi="96" />
    <path
       style="fill:none;stroke:#000000;stroke-width:0.26458332px;stroke-linecap:butt;stroke-linejoin:miter;stroke-opacity:1"
       d="m 78.241066,37.708332 c 0.503503,2.014006 1.007472,4.029879 1.259691,5.226414 0.252218,1.196536 0.252218,1.574512 0.252218,1.889492 0,0.31498 0,0.566964 0,0.818949 0,0.251985 0,0.503969 0.125788,0.819967 0.125789,0.315997 0.377772,0.693972 0.503967,1.259919 0.126196,0.565946 0.126196,1.3219 0.126196,2.518825 0,1.196925 0,2.83482 0,4.913689 0,2.07887 0,4.598711 0,6.299603 0,1.700893 0,2.582837 0,3.149802 0,0.566965 0,0.818949 -0.0622,1.070668 -0.0622,0.251719 -0.188194,0.503703 -0.251983,0.944941 -0.06379,0.441238 -0.06379,1.071197 -0.06379,1.95314 0,0.881944 0,2.015874 0,2.834823 0,0.818949 0,1.322917 -0.06167,1.637897 -0.06167,0.314979 -0.187665,0.440971 -0.314186,0.629695 -0.126521,0.188723 -0.252513,0.440707 -0.379299,0.50529 -0.126786,0.06458 -0.252778,-0.06141 -0.315774,-0.188723 -0.063,-0.127315 -0.063,-0.253307 -0.063,-0.505291 0,-0.251983 0,-0.629959 0,-1.196924 0,-0.566965 0,-1.322917 0,-1.952877 0,-0.629959 0,-1.13393 0,-1.44891 0,-0.314979 0,-0.440971 0,-0.566963 0,-0.125992 0,-0.251984 0,-0.251984 0,0 0,0.125992 0,0.25463"
       id="path22"
       inkscape:connector-curvature="0"
       inkscape:path-effect="#path-effect24"
       inkscape:original-d="m 78.241066,37.708332 c 0.506617,2.013227 1.010584,4.029101 1.511909,6.04762 0.0026,0.37533 0.0026,0.753306 0,1.133928 0.0026,0.249338 0.0026,0.501322 0,0.755951 0.0026,0.249341 0.0026,0.501325 0,0.755955 0.25463,0.37533 0.506613,0.753305 0.755951,1.133927 0.0026,0.753306 0.0026,1.50926 0,2.267858 0.0026,1.635252 0.0026,3.273147 0,4.91369 0.0026,2.517196 0.0026,5.037037 0,7.559524 0.0026,0.879298 0.0026,1.761242 0,2.645834 0.0026,0.249338 0.0026,0.501322 0,0.755951 -0.123346,0.249338 -0.249338,0.501322 -0.377975,0.755952 0.0026,0.627317 0.0026,1.257276 0,1.889882 0.0026,1.131281 0.0026,2.265211 0,3.401785 0.0026,0.501324 0.0026,1.005292 0,1.511905 -0.123346,0.123347 -0.249338,0.249339 -0.377976,0.377976 -0.123346,0.249338 -0.249338,0.501322 -0.377976,0.755952 -0.123346,-0.128638 -0.249338,-0.25463 -0.377976,-0.377976 0.0026,-0.128638 0.0026,-0.25463 0,-0.377976 0.0026,-0.380621 0.0026,-0.758597 0,-1.133927 0.0026,-0.7586 0.0026,-1.514552 0,-2.267858 0.0026,-0.506613 0.0026,-1.010584 0,-1.511905 0.0026,-0.128638 0.0026,-0.25463 0,-0.377976 0.0026,-0.128638 0.0026,-0.25463 0,-0.377976 0.0026,0.123346 0.0026,0.249338 0,0.377976"
       inkscape:export-filename="/home/jack/Github/COMP9020_LaTex/Ass2/Graphics/q1a1.png"
       inkscape:export-xdpi="96"
       inkscape:export-ydpi="96" />
    <path
       style="fill:none;stroke:#000000;stroke-width:0.26458332px;stroke-linecap:butt;stroke-linejoin:miter;stroke-opacity:1"
       d="m 40.194113,68.70238 c 0.208613,0.754173 0.417718,1.510128 0.712828,1.888993 0.29511,0.378864 0.673086,0.378864 1.051062,0.378864 0.377976,0 0.755951,0 2.393848,0 1.637896,0 4.535714,0 6.488592,0 1.952877,0 2.960812,0 3.590773,0 0.629961,0 0.881945,0 1.070933,0 0.188988,0 0.31498,0 0.692022,0.189221 0.377043,0.189221 1.007004,0.567198 1.385914,0.755952 0.37891,0.188754 0.504901,0.188754 0.756885,0.188754 0.251984,0 0.62996,0 0.944147,0.06326 0.314188,0.06326 0.566172,0.189254 0.881945,0.251985 0.315774,0.06273 0.69375,0.06273 1.007936,0.125992 0.314186,0.06326 0.566169,0.189253 1.070932,0.251985 0.504763,0.06273 1.260715,0.06273 2.457639,0.06273 1.196925,0 2.834823,0 4.535716,0 1.700892,0 3.464779,0 4.535977,-0.06352 1.071197,-0.06352 1.449173,-0.189517 1.700893,-0.316303 0.25172,-0.126787 0.377712,-0.252779 0.503704,-0.314453 0.125993,-0.06167 0.251985,-0.06167 0.251985,-0.06167 0,0 -0.125992,0 0.314818,-0.631411 0.440811,-0.631412 1.448748,-1.891333 2.454361,-3.148349"
       id="path26"
       inkscape:connector-curvature="0"
       inkscape:path-effect="#path-effect28"
       inkscape:original-d="m 40.194113,68.70238 c 0.211751,0.753305 0.420857,1.50926 0.627314,2.267857 0.380624,-0.0026 0.7586,-0.0026 1.13393,0 0.380622,-0.0026 0.758597,-0.0026 1.133927,0 2.900463,-0.0026 5.798281,-0.0026 8.693455,0 1.010581,-0.0026 2.018516,-0.0026 3.023809,0 0.254629,-0.0026 0.506613,-0.0026 0.755951,0 0.128638,-0.0026 0.25463,-0.0026 0.377976,0 0.632606,0.37533 1.262568,0.753306 1.889882,1.133927 0.128638,-0.0026 0.254629,-0.0026 0.377976,0 0.380621,-0.0026 0.758597,-0.0026 1.133927,0 0.254632,0.123349 0.506616,0.249341 0.755954,0.377979 0.380622,-0.0026 0.758598,-0.0026 1.133928,0 0.254629,0.123346 0.506613,0.249338 0.755951,0.377976 0.7586,-0.0026 1.514552,-0.0026 2.267858,0 1.640543,-0.0026 3.278441,-0.0026 4.913691,0 1.766535,-0.0026 3.530422,-0.0026 5.291666,0 0.380622,-0.128638 0.758598,-0.25463 1.13393,-0.377976 0.128638,-0.128638 0.25463,-0.25463 0.377976,-0.377979 0.128638,-0.0026 0.25463,-0.0026 0.377976,0 -0.123346,-0.0026 -0.249338,-0.0026 -0.377976,0 1.010581,-1.262565 2.018517,-2.522487 3.023809,-3.77976"
       inkscape:export-filename="/home/jack/Github/COMP9020_LaTex/Ass2/Graphics/q1a1.png"
       inkscape:export-xdpi="96"
       inkscape:export-ydpi="96" />
    <path
       style="fill:none;stroke:#000000;stroke-width:0.26458332px;stroke-linecap:butt;stroke-linejoin:miter;stroke-opacity:1"
       d="m 78.241066,37.708332 c 0.758099,0.12635 1.514054,0.252343 2.081534,0.251635 0.56748,-7.09e-4 0.945456,-0.126701 1.701143,-0.189168 0.755687,-0.06247 1.889617,-0.06247 2.645833,-0.125992 0.756216,-0.06352 1.134192,-0.189517 1.574901,-0.251984 0.440708,-0.06247 0.944676,-0.06247 1.574636,-0.06247 0.629959,0 1.385913,0 2.960814,0 1.5749,0 3.96875,0 5.921627,0 1.952876,0 3.464786,0 4.535716,0 1.07093,0 1.70089,0 2.20433,0.06326 0.50344,0.06326 0.88141,0.189251 1.32292,0.251983 0.4415,0.06273 0.94547,0.06273 1.76442,0.06273 0.81894,0 1.95287,0 2.96081,0 1.00793,0 1.88988,0 2.45711,-0.06379 0.56723,-0.06379 0.81921,-0.189781 1.25992,-0.251983 0.44071,-0.0622 1.07067,-0.0622 1.51164,-0.189518 0.44097,-0.127315 0.69296,-0.379303 1.00794,-0.50397 0.31498,-0.124667 0.69295,-0.124667 0.94493,-0.188986 0.25199,-0.06432 0.37798,-0.19031 0.69296,-0.251983 0.31498,-0.06167 0.81895,-0.06167 1.5749,-0.06167 0.75595,0 1.76389,0 2.76918,0"
       id="path30"
       inkscape:connector-curvature="0"
       inkscape:path-effect="#path-effect32"
       inkscape:original-d="m 78.241066,37.708332 c 0.7586,0.123346 1.514555,0.24934 2.26786,0.377978 0.380625,-0.128638 0.758601,-0.254632 1.13393,-0.377978 1.136574,-0.0026 2.270504,-0.0026 3.401785,0 0.380622,-0.128638 0.758598,-0.25463 1.13393,-0.377976 0.506614,-0.0026 1.010582,-0.0026 1.511904,0 0.758597,-0.0026 1.514551,-0.0026 2.267857,0 2.396495,-0.0026 4.790345,-0.0026 7.181548,0 1.51455,-0.0026 3.02646,-0.0026 4.53571,0 0.63261,-0.0026 1.26257,-0.0026 1.88988,0 0.38063,0.123346 0.7586,0.249338 1.13393,0.377976 0.50662,-0.0026 1.01059,-0.0026 1.51191,0 1.13657,-0.0026 2.2705,-0.0026 3.40178,0 0.88459,-0.0026 1.76654,-0.0026 2.64584,0 0.25463,-0.128638 0.50661,-0.25463 0.75595,-0.377976 0.63261,-0.0026 1.26257,-0.0026 1.88988,0 0.25463,-0.25463 0.50662,-0.506614 0.75595,-0.755952 0.38063,-0.0026 0.7586,-0.0026 1.13393,0 0.12864,-0.128638 0.25463,-0.25463 0.37798,-0.377976 0.50661,-0.0026 1.01058,-0.0026 1.5119,0 1.01058,-0.0026 2.01852,-0.0026 3.02381,0"
       inkscape:export-filename="/home/jack/Github/COMP9020_LaTex/Ass2/Graphics/q1a1.png"
       inkscape:export-xdpi="96"
       inkscape:export-ydpi="96" />
    <path
       style="fill:none;stroke:#000000;stroke-width:0.26458332px;stroke-linecap:butt;stroke-linejoin:miter;stroke-opacity:1"
       d="m 121.70833,36.196428 c 0.37743,1.006485 0.75541,2.014424 0.94467,2.832774 0.18926,0.818349 0.18926,1.448312 0.12706,1.889019 -0.0622,0.440708 -0.1882,0.692691 -0.25199,0.881943 -0.0638,0.189253 -0.0638,0.315245 -0.0638,0.504233 0,0.188988 0,0.440971 0,0.881944 0,0.440974 0,1.070933 0,2.897817 0,1.826885 0,4.850694 0,6.740576 0,1.889882 0,2.645833 0,3.212798 0,0.566965 0,0.944941 0,1.196925 0,0.251984 0,0.377976 -0.0617,0.503967 -0.0617,0.125991 -0.18766,0.251983 -0.25198,0.377975 -0.0643,0.125993 -0.0643,0.251985 -0.12652,0.440709 -0.0622,0.188724 -0.1882,0.440709 -0.25199,0.944942 -0.0638,0.504232 -0.0638,1.260184 -0.18846,1.764153 -0.12467,0.503969 -0.37665,0.755952 -0.50397,1.070932 -0.12731,0.31498 -0.12731,0.692956 -0.18898,0.944941 -0.0617,0.251984 -0.18767,0.377975 -0.31468,0.755748 -0.12701,0.377773 -0.253,1.007733 -0.3163,1.574901 -0.0633,0.567167 -0.0633,1.071135 -0.25076,1.449417 -0.18746,0.378282 -0.56544,0.630268 -0.75596,0.881946 -0.19051,0.251678 -0.19051,0.503662 -0.25218,0.692651 -0.0617,0.188988 -0.18767,0.314978 -0.25199,0.62996 -0.0643,0.314981 -0.0643,0.818949 -0.0643,1.25992 0,0.440972 0,0.818948 0.0627,1.134722 0.0627,0.315774 0.18873,0.567758 0.31525,0.820802"
       id="path34"
       inkscape:connector-curvature="0"
       inkscape:path-effect="#path-effect36"
       inkscape:original-d="m 121.70833,36.196428 c 0.38062,1.00529 0.7586,2.013228 1.13393,3.023809 0.003,0.627314 0.003,1.257277 0,1.889882 -0.12335,0.249338 -0.24934,0.501322 -0.37798,0.755952 0.003,0.123346 0.003,0.249338 0,0.377976 0.003,0.249338 0.003,0.501321 0,0.755951 0.003,0.627317 0.003,1.257276 0,1.889882 0.003,3.021163 0.003,6.044972 0,9.07143 0.003,0.753306 0.003,1.509257 0,2.267855 0.003,0.375332 0.003,0.753308 0,1.13393 0.003,0.123346 0.003,0.249338 0,0.377976 -0.12334,0.123346 -0.24933,0.249338 -0.37797,0.377975 0.003,0.123346 0.003,0.249338 0,0.377976 -0.12335,0.249338 -0.24934,0.501325 -0.37798,0.755954 0.003,0.753306 0.003,1.509258 0,2.267855 -0.24934,0.249341 -0.50132,0.501325 -0.75595,0.755954 0.003,0.37533 0.003,0.753306 0,1.133928 -0.12335,0.123346 -0.24934,0.249338 -0.37798,0.377976 -0.12334,0.627316 -0.24933,1.257276 -0.37797,1.889881 0.003,0.501322 0.003,1.00529 0,1.511906 -0.37533,0.249338 -0.75331,0.501322 -1.13393,0.755952 0.003,0.249338 0.003,0.501322 0,0.755952 -0.12335,0.123346 -0.24934,0.249338 -0.37798,0.377975 0.003,0.501325 0.003,1.005293 0,1.511906 0.003,0.37533 0.003,0.753306 0,1.133928 0.12864,0.249338 0.25463,0.501324 0.37798,0.755954"
       inkscape:export-filename="/home/jack/Github/COMP9020_LaTex/Ass2/Graphics/q1a1.png"
       inkscape:export-xdpi="96"
       inkscape:export-ydpi="96" />
    <path
       style="fill:none;stroke:#000000;stroke-width:0.26458332px;stroke-linecap:butt;stroke-linejoin:miter;stroke-opacity:1"
       d="m 76.227844,72.104162 c 2.815188,0.378279 5.62813,0.756257 7.47577,0.945094 1.847641,0.188838 2.729587,0.188838 3.548284,0.252013 0.818698,0.06317 1.574653,0.189167 2.39385,0.251984 0.819198,0.06282 1.701144,0.06282 3.276045,0.06282 1.5749,0 3.842758,0 5.606648,0 1.763889,0 3.023809,0 3.968749,0 0.94494,0 1.5749,0 2.14107,0.126257 0.56617,0.126258 1.07014,0.378242 1.6379,0.503968 0.56775,0.125727 1.19772,0.125727 1.82768,0.125727 0.62996,0 1.25991,0 1.63789,-0.06432 0.37798,-0.06432 0.50397,-0.19031 0.62996,-0.251983 0.12599,-0.06167 0.25199,-0.06167 0.37798,-0.06167 0.12599,0 0.25198,0 0.81895,0 0.56696,0 1.5749,0 2.14186,-0.06432 0.56697,-0.06432 0.69296,-0.190312 0.81895,-0.251984 0.12599,-0.06167 0.25198,-0.06167 0.44097,-0.06167 0.18899,0 0.44098,0 0.62996,0 0.18899,0 0.31498,0 0.44098,0 0.12599,0 0.25198,0 0.25198,0 0,0 -0.12599,0 -0.0627,-0.06379 0.0633,-0.06379 0.31524,-0.18978 0.50396,-0.316302 0.18873,-0.126522 0.31472,-0.252512 0.31472,-0.252512 0,0 -0.12599,0.12599 0.18925,0.06379 0.31525,-0.0622 1.0712,-0.314185 1.82398,-0.565111"
       id="path38"
       inkscape:connector-curvature="0"
       inkscape:path-effect="#path-effect40"
       inkscape:original-d="m 76.227844,72.104162 c 2.815584,0.375332 5.628526,0.753308 8.438822,1.133932 0.884589,-0.0026 1.766535,-0.0026 2.645833,0 0.758597,0.123347 1.514552,0.249339 2.267857,0.377976 0.88459,-0.0026 1.766536,-0.0026 2.645834,0 2.270503,-0.0026 4.538361,-0.0026 6.80357,0 1.26257,-0.0026 2.52249,-0.0026 3.77976,0 0.63261,-0.0026 1.26257,-0.0026 1.88988,0 0.50662,0.249338 1.01059,0.501322 1.51191,0.755952 0.6326,-0.0026 1.26257,-0.0026 1.88988,0 0.63261,-0.0026 1.26256,-0.0026 1.88988,0 0.12864,-0.128638 0.25463,-0.25463 0.37798,-0.377976 0.12863,-0.0026 0.25463,-0.0026 0.37797,0 0.12864,-0.0026 0.25463,-0.0026 0.37798,0 1.01058,-0.0026 2.01852,-0.0026 3.02381,0 0.12864,-0.128638 0.25463,-0.25463 0.37797,-0.377976 0.12864,-0.0026 0.25463,-0.0026 0.37798,0 0.25463,-0.0026 0.50662,-0.0026 0.75595,0 0.12864,-0.0026 0.25463,-0.0026 0.37798,0 0.12864,-0.0026 0.25463,-0.0026 0.37798,0 -0.12335,-0.0026 -0.24934,-0.0026 -0.37798,0 0.25463,-0.128637 0.50661,-0.254629 0.75595,-0.377976 0.12864,-0.128637 0.25463,-0.254629 0.37798,-0.377975 -0.12335,0.123346 -0.24934,0.249338 -0.37798,0.377975 0.7586,-0.254629 1.51455,-0.506613 2.26786,-0.755951"
       inkscape:export-xdpi="96"
       inkscape:export-ydpi="96"
       inkscape:export-filename="/home/jack/Github/COMP9020_LaTex/Ass2/Graphics/q1a1.png" />
  </g>
</svg>
