<?xml version="1.0" encoding="UTF-8" standalone="no"?>
<!-- Created with Inkscape (http://www.inkscape.org/) -->

<svg
   xmlns:dc="http://purl.org/dc/elements/1.1/"
   xmlns:cc="http://creativecommons.org/ns#"
   xmlns:rdf="http://www.w3.org/1999/02/22-rdf-syntax-ns#"
   xmlns:svg="http://www.w3.org/2000/svg"
   xmlns="http://www.w3.org/2000/svg"
   xmlns:sodipodi="http://sodipodi.sourceforge.net/DTD/sodipodi-0.dtd"
   xmlns:inkscape="http://www.inkscape.org/namespaces/inkscape"
   width="210mm"
   height="297mm"
   viewBox="0 0 744.09448819 1052.3622047"
   id="svg2"
   version="1.1"
   inkscape:version="0.91 r13725"
   sodipodi:docname="q1b1.svg">
  <defs
     id="defs4" />
  <sodipodi:namedview
     id="base"
     pagecolor="#ffffff"
     bordercolor="#666666"
     borderopacity="1.0"
     inkscape:pageopacity="0.0"
     inkscape:pageshadow="2"
     inkscape:zoom="1.979899"
     inkscape:cx="513.7622"
     inkscape:cy="731.74016"
     inkscape:document-units="px"
     inkscape:current-layer="layer1"
     showgrid="false"
     inkscape:window-width="1920"
     inkscape:window-height="1020"
     inkscape:window-x="0"
     inkscape:window-y="0"
     inkscape:window-maximized="1" />
  <metadata
     id="metadata7">
    <rdf:RDF>
      <cc:Work
         rdf:about="">
        <dc:format>image/svg+xml</dc:format>
        <dc:type
           rdf:resource="http://purl.org/dc/dcmitype/StillImage" />
        <dc:title></dc:title>
      </cc:Work>
    </rdf:RDF>
  </metadata>
  <g
     inkscape:label="Layer 1"
     inkscape:groupmode="layer"
     id="layer1">
    <path
       style="fill:none;fill-rule:evenodd;stroke:#000000;stroke-width:1px;stroke-linecap:butt;stroke-linejoin:miter;stroke-opacity:1"
       d="m 144.28571,208.07649 c 467.14286,0 471.42858,1.42857 471.42858,1.42857 l 1.42857,207.14286 -465.71429,0 z"
       id="path3340"
       inkscape:connector-curvature="0"
       inkscape:export-xdpi="90"
       inkscape:export-ydpi="90" />
    <path
       style="fill:none;fill-rule:evenodd;stroke:#000000;stroke-width:1px;stroke-linecap:butt;stroke-linejoin:miter;stroke-opacity:1"
       d="m 284.28571,415.21935 1.42858,-208.57143"
       id="path3342"
       inkscape:connector-curvature="0"
       inkscape:export-xdpi="90"
       inkscape:export-ydpi="90" />
    <path
       style="fill:none;fill-rule:evenodd;stroke:#000000;stroke-width:1px;stroke-linecap:butt;stroke-linejoin:miter;stroke-opacity:1"
       d="m 464.28571,415.21935 2.85715,-208.57143"
       id="path3344"
       inkscape:connector-curvature="0"
       inkscape:export-xdpi="90"
       inkscape:export-ydpi="90" />
    <path
       style="fill:#ff0000"
       id="path3483"
       d="m 140.45052,198.78667 c 1.11926,1.69141 2.58559,3.06047 4.09957,4.38642 1.21797,1.0713 2.45144,2.13308 3.77105,3.07812 1.29413,0.91075 2.55332,1.86466 3.77315,2.87278 0.90991,0.76672 1.57079,1.74747 2.24013,2.71652 0,0 -6.43111,3.7827 -6.43111,3.7827 l 0,0 c -0.6305,-0.91269 -1.25621,-1.83561 -2.12875,-2.54098 -1.21826,-0.99432 -2.49633,-1.90501 -3.76693,-2.83056 -1.30838,-0.99189 -2.57329,-2.04135 -3.78539,-3.14904 -1.52137,-1.36917 -2.95676,-2.81127 -4.19643,-4.44642 0,0 6.42471,-3.86954 6.42471,-3.86954 z"
       inkscape:connector-curvature="0" />
    <path
       style="fill:#ff0000"
       id="path3485"
       d="m 280.92357,408.029 c 1.77392,2.54211 3.85697,4.85897 6.13239,6.95879 3.29812,2.98363 6.89693,5.59907 10.61426,8.02978 0.65418,0.4143 1.30836,0.8286 1.96254,1.24289 0,0 -6.1068,3.92448 -6.1068,3.92448 l 0,0 c -0.64669,-0.42199 -1.29338,-0.84398 -1.94006,-1.26596 -3.74737,-2.47477 -7.42784,-5.08074 -10.79345,-8.06193 -2.29181,-2.15059 -4.33035,-4.54943 -6.29645,-6.99835 0,0 6.42757,-3.8297 6.42757,-3.8297 z"
       inkscape:connector-curvature="0" />
    <path
       style="fill:#ff0000"
       id="path3487"
       d="m 465.76271,199.26861 c 1.76064,1.9679 3.76636,3.68328 5.84216,5.30616 1.85938,1.4007 3.63228,2.90029 5.33839,4.48209 0.25659,0.24221 0.51318,0.48442 0.76977,0.72663 0,0 -6.32654,3.90028 -6.32654,3.90028 l 0,0 c -0.25309,-0.24085 -0.50618,-0.4817 -0.75927,-0.72255 -1.69267,-1.56226 -3.45467,-3.04545 -5.27914,-4.45216 -2.08328,-1.67146 -4.08262,-3.43908 -5.97539,-5.32463 0,0 6.39002,-3.91582 6.39002,-3.91582 z"
       inkscape:connector-curvature="0" />
    <path
       style="fill:#800080"
       id="path3489"
       d="m 615.69478,407.99752 c 0.96092,1.55255 2.1853,2.91898 3.25583,4.39221 0.62021,0.85351 1.19536,1.73899 1.80806,2.5979 1.66646,2.2952 3.54169,4.41905 5.59797,6.36871 1.33119,1.10203 2.50973,2.28308 3.39209,3.76965 0.10303,0.16994 0.20606,0.33988 0.3091,0.50982 0,0 -6.48247,3.76006 -6.48247,3.76006 l 0,0 c -0.10418,-0.17284 -0.20835,-0.34567 -0.31252,-0.51851 -0.83192,-1.43008 -1.96633,-2.55665 -3.21664,-3.6379 -2.05381,-2.01107 -3.93431,-4.18271 -5.62408,-6.51093 -1.68886,-2.35702 -3.38744,-4.70001 -5.20785,-6.95918 0,0 6.48051,-3.77183 6.48051,-3.77183 z"
       inkscape:connector-curvature="0" />
    <path
       style="fill:#800080"
       id="path3491"
       d="m 147.60941,403.29979 c 1.86236,1.69383 3.63123,3.49322 5.55855,5.1132 2.30643,1.93373 4.74137,3.69515 6.77225,5.92822 1.21812,1.36375 2.25862,2.84759 3.05531,4.49133 0.61515,1.27811 1.24807,2.54765 1.96762,3.7704 0,0 -6.45996,3.73426 -6.45996,3.73426 l 0,0 c -0.72216,-1.24373 -1.36949,-2.52961 -2.00147,-3.82088 -0.75167,-1.58084 -1.76138,-3.0077 -2.89433,-4.34039 -1.98405,-2.23295 -4.41483,-3.95506 -6.7115,-5.84787 -1.9244,-1.64319 -3.68631,-3.46778 -5.64516,-5.07319 0,0 6.35869,-3.95508 6.35869,-3.95508 z"
       inkscape:connector-curvature="0" />
    <path
       style="fill:#800080"
       id="path3493"
       d="m 282.88203,196.76637 c 1.67863,2.09399 3.56509,3.98796 5.58074,5.7535 1.96597,1.63568 3.8621,3.35113 5.72711,5.10014 1.07532,1.0802 2.06507,2.24041 3.09097,3.36663 0,0 -6.37628,3.86583 -6.37628,3.86583 l 0,0 c -1.00978,-1.11268 -1.98681,-2.25522 -3.02911,-3.3378 -1.84509,-1.75247 -3.74037,-3.44918 -5.67241,-5.10537 -2.03226,-1.81024 -3.93201,-3.74328 -5.74573,-5.77339 0,0 6.42471,-3.86954 6.42471,-3.86954 z"
       inkscape:connector-curvature="0" />
    <path
       style="fill:#800080"
       id="path3495"
       d="m 456.17665,403.40271 c 1.98954,2.40382 4.18349,4.62612 6.53839,6.67004 1.86067,1.57139 4.05955,2.72547 5.79276,4.44365 1.00087,1.15079 1.9421,2.34985 2.95249,3.49284 0,0 -6.38928,3.86559 -6.38928,3.86559 l 0,0 c -1.01014,-1.12167 -1.9253,-2.32016 -2.91794,-3.45654 -1.72631,-1.67953 -3.8595,-2.87829 -5.66115,-4.47452 -2.37288,-2.09012 -4.58946,-4.34036 -6.72606,-6.67098 0,0 6.41079,-3.87008 6.41079,-3.87008 z"
       inkscape:connector-curvature="0" />
    <path
       style="fill:#800080"
       id="path3497"
       d="m 616.24213,200.38492 c 1.08399,1.84463 2.4572,3.48399 3.708,5.21251 1.07848,1.75933 2.23154,3.46803 3.26963,5.25119 0.74165,1.5446 1.49569,3.07869 2.30466,4.59086 0.13345,0.26439 0.2669,0.52879 0.40035,0.79319 0,0 -6.47934,3.68968 -6.47934,3.68968 l 0,0 c -0.12838,-0.25858 -0.25676,-0.51716 -0.38515,-0.77574 -0.81578,-1.50049 -1.57657,-3.02294 -2.29803,-4.57033 -1.00964,-1.76905 -2.12256,-3.47378 -3.20343,-5.20017 -1.25136,-1.72482 -2.58966,-3.3848 -3.76092,-5.16686 0,0 6.44423,-3.82433 6.44423,-3.82433 z"
       inkscape:connector-curvature="0" />
  </g>
</svg>
