<?xml version="1.0" encoding="UTF-8" standalone="no"?>
<!-- Created with Inkscape (http://www.inkscape.org/) -->

<svg
   xmlns:dc="http://purl.org/dc/elements/1.1/"
   xmlns:cc="http://creativecommons.org/ns#"
   xmlns:rdf="http://www.w3.org/1999/02/22-rdf-syntax-ns#"
   xmlns:svg="http://www.w3.org/2000/svg"
   xmlns="http://www.w3.org/2000/svg"
   xmlns:sodipodi="http://sodipodi.sourceforge.net/DTD/sodipodi-0.dtd"
   xmlns:inkscape="http://www.inkscape.org/namespaces/inkscape"
   width="210mm"
   height="297mm"
   viewBox="0 0 210 297"
   version="1.1"
   id="svg67"
   inkscape:version="0.92.1 r15371"
   sodipodi:docname="q1b1.svg">
  <defs
     id="defs61">
    <inkscape:path-effect
       effect="bspline"
       id="path-effect79"
       is_visible="true"
       weight="33.333333"
       steps="2"
       helper_size="0"
       apply_no_weight="true"
       apply_with_weight="true"
       only_selected="false" />
    <inkscape:path-effect
       effect="bspline"
       id="path-effect75"
       is_visible="true"
       weight="33.333333"
       steps="2"
       helper_size="0"
       apply_no_weight="true"
       apply_with_weight="true"
       only_selected="false" />
    <inkscape:path-effect
       effect="bspline"
       id="path-effect71"
       is_visible="true"
       weight="33.333333"
       steps="2"
       helper_size="0"
       apply_no_weight="true"
       apply_with_weight="true"
       only_selected="false" />
  </defs>
  <sodipodi:namedview
     id="base"
     pagecolor="#ffffff"
     bordercolor="#666666"
     borderopacity="1.0"
     inkscape:pageopacity="0.0"
     inkscape:pageshadow="2"
     inkscape:zoom="0.7"
     inkscape:cx="79.34096"
     inkscape:cy="725.57545"
     inkscape:document-units="mm"
     inkscape:current-layer="layer1"
     showgrid="false"
     inkscape:window-width="1920"
     inkscape:window-height="1001"
     inkscape:window-x="0"
     inkscape:window-y="30"
     inkscape:window-maximized="1"
     showguides="true" />
  <metadata
     id="metadata64">
    <rdf:RDF>
      <cc:Work
         rdf:about="">
        <dc:format>image/svg+xml</dc:format>
        <dc:type
           rdf:resource="http://purl.org/dc/dcmitype/StillImage" />
        <dc:title></dc:title>
      </cc:Work>
    </rdf:RDF>
  </metadata>
  <g
     inkscape:label="Layer 1"
     inkscape:groupmode="layer"
     id="layer1">
    <path
       style="fill:none;stroke:#000000;stroke-width:0.26458332px;stroke-linecap:butt;stroke-linejoin:miter;stroke-opacity:1"
       d="m 41.955357,91.380952 c -0.126399,-0.631995 -0.252391,-1.261957 -0.315184,-1.703235 -0.06279,-0.441277 -0.06279,-0.69326 -0.06279,-1.134232 0,-0.440972 0,-1.070934 0,-2.393851 0,-1.322917 0,-3.338788 0,-5.102678 0,-1.763889 0,-3.275792 0,-4.283729 0,-1.007937 0,-1.511905 -0.126196,-1.95186 -0.126196,-0.439955 -0.37818,-0.817931 -0.503969,-1.322916 -0.125789,-0.504986 -0.125789,-1.134946 -0.125789,-2.205878 0,-1.070933 0,-2.582839 0,-4.346728 0,-1.763888 0,-3.779762 0,-5.102679 0,-1.322916 0,-1.952876 0,-2.393848 0,-0.440971 0,-0.692958 -0.06323,-1.070544 -0.06323,-0.377587 -0.189222,-0.881555 -0.251984,-1.25992 -0.06276,-0.378365 -0.06276,-0.630349 -0.06276,-1.071322 0,-0.440973 0,-1.070933 0,-1.574901 0,-0.503967 0,-0.881946 0,-1.13393 0,-0.251983 0,-0.377975 -0.06326,-0.62943 -0.06326,-0.251455 -0.189252,-0.629431 -0.251984,-0.944939 -0.06273,-0.315509 -0.06273,-0.567493 -0.06273,-1.071462 0,-0.503969 0,-1.259921 -0.06326,-1.826357 -0.06326,-0.566436 -0.189252,-0.944412 -0.251983,-1.259921 -0.06273,-0.315509 -0.06273,-0.567492 -0.377819,-1.070267 -0.315089,-0.502775 -0.94505,-1.258728 -0.818076,-1.510333 0.126975,-0.251604 1.008918,3.8e-4 1.702324,0.126122 0.693406,0.125743 1.197375,0.125743 2.3943,0.125743 1.196924,0 3.086805,0 5.54365,0 2.456845,0 5.480655,0 7.370536,0 1.889881,0 2.645833,0 3.149802,0 0.503968,0 0.755952,0 0.94494,0 0.188988,0 0.31498,0 0.504233,-0.06379 0.189252,-0.06379 0.441236,-0.189781 1.007936,-0.251984 0.5667,-0.0622 1.448644,-0.0622 2.645569,-0.0622 1.196925,0 2.708829,0 4.913691,0 2.204861,0 5.102678,0 6.992559,0 1.889881,0 2.771825,0 3.464782,0 0.692956,0 1.196924,0 1.511905,0 0.31498,0 0.440972,0 0.693221,-0.06353 0.252248,-0.06352 0.630224,-0.189517 1.007936,-0.251984 0.377712,-0.06247 0.755688,-0.06247 1.133664,-0.06247 0.377976,0 0.755952,0 1.700993,-0.06311 0.945041,-0.06312 2.456946,-0.189107 3.275794,-0.316303 0.818847,-0.127196 0.94484,-0.253189 1.134093,-0.378652 0.189252,-0.125462 0.441236,-0.251454 0.692956,-0.313657 0.25172,-0.0622 0.503704,-0.0622 1.007672,-0.0622 0.503968,0 1.259921,0 2.582838,0 1.322916,0 3.212797,0 4.472717,0 1.259921,0 1.889883,0 2.835023,-0.126298 0.94515,-0.126297 2.20507,-0.378281 3.08681,-0.503968 0.88174,-0.125686 1.38571,-0.125686 2.14189,-0.252067 0.75619,-0.126381 1.76413,-0.378366 2.45685,-0.503969 0.69272,-0.125603 1.0707,-0.125603 1.44894,-0.189128 0.37824,-0.06352 0.75622,-0.189518 1.19692,-0.251984 0.44071,-0.06247 0.94468,-0.06247 1.70063,-0.06247 0.75595,0 1.76389,0 3.65377,0 1.88988,0 4.66171,0 6.99256,0 2.33085,0 4.22073,0 5.41765,0 1.19693,0 1.7009,0 2.07887,0 0.37798,0 0.62997,0 0.81895,0 0.18899,0 0.31499,0 0.44098,-0.06432 0.12599,-0.06432 0.25198,-0.19031 0.37798,-0.251983 0.12599,-0.06167 0.25198,-0.06167 0.44097,-0.06167 0.18899,0 0.44097,0 1.13392,0 0.69296,0 1.82689,0 2.70884,0 0.88194,0 1.5119,0 2.07886,0 0.56697,0 1.07094,0 1.38592,0 0.31498,0 0.44097,0 0.75556,0.06323 0.31459,0.06323 0.81856,0.189222 1.38432,1.070224 0.56575,0.881003 1.19571,2.5189 1.51097,3.463226 0.31525,0.944326 0.31525,1.19631 0.31525,1.51129 0,0.31498 0,0.692957 0,1.511905 0,0.818948 0,2.078869 0,3.149802 0,1.070932 0,1.952876 -0.1252,2.645568 -0.1252,0.692693 -0.37718,1.19666 -0.50396,1.511905 -0.12679,0.315245 -0.12679,0.441237 -0.12679,0.756217 0,0.31498 0,0.818948 0,1.952877 0,1.133929 0,2.897817 0,4.28373 0,1.385913 0,2.393849 0,3.02381 0,0.62996 0,0.881944 0,1.133928 0,0.251984 0,0.503968 0.12573,0.882738 0.12572,0.378771 0.37771,0.882737 0.56696,1.198247 0.18925,0.31551 0.31525,0.441501 0.37824,0.629167 0.063,0.187666 0.063,0.43965 0.063,0.880622 0,0.440972 0,1.070933 0.0627,1.5127 0.0627,0.441766 0.18872,0.69375 0.25198,0.881944 0.0633,0.188193 0.0633,0.314185 0.0633,0.629166 0,0.31498 0,0.818948 0,1.889881 0,1.070932 0,2.708829 0,3.96875 0,1.25992 0,2.141865 0,2.834821 0,0.692956 0,1.196925 -0.12467,1.574899 -0.12466,0.377974 -0.37665,0.629962 -0.50397,1.007938 -0.12731,0.377976 -0.12731,0.881945 -0.18898,1.196926 -0.0617,0.31498 -0.18767,0.440971 -0.25199,0.818947 -0.0643,0.377976 -0.0643,1.007937 -0.12652,1.448644 -0.0622,0.440706 -0.18819,0.69269 -0.25198,0.881944 -0.0638,0.189254 -0.0638,0.315246 -0.12546,0.441239 -0.0617,0.125992 -0.18767,0.251983 -0.25199,0.377975 -0.0643,0.125992 -0.0643,0.251984 -0.18899,0.440973 -0.12467,0.188988 -0.37665,0.440971 -0.50397,0.629959 -0.12731,0.188989 -0.12731,0.314981 -0.25228,0.566762 -0.12498,0.251781 -0.37696,0.629756 -0.63098,1.010785"
       id="path69"
       inkscape:connector-curvature="0"
       inkscape:path-effect="#path-effect71"
       inkscape:original-d="m 41.955357,91.380952 c -0.123346,-0.632606 -0.249338,-1.262568 -0.377976,-1.889882 0.0026,-0.25463 0.0026,-0.506613 0,-0.755952 0.0026,-0.632605 0.0026,-1.262567 0,-1.889881 0.0026,-2.01852 0.0026,-4.034391 0,-6.047618 0.0026,-1.514552 0.0026,-3.026455 0,-4.535715 0.0026,-0.506614 0.0026,-1.010582 0,-1.511906 -0.249338,-0.380622 -0.501322,-0.758598 -0.755954,-1.133928 0.0026,-0.632605 0.0026,-1.262565 0,-1.889881 0.0026,-1.514549 0.0026,-3.026455 0,-4.535713 0.0026,-2.018519 0.0026,-4.034393 0,-6.047621 0.0026,-0.632605 0.0026,-1.262565 0,-1.889879 0.0026,-0.254629 0.0026,-0.506616 0,-0.755954 -0.123346,-0.506613 -0.249338,-1.010581 -0.377976,-1.511903 0.0026,-0.25463 0.0026,-0.506614 0,-0.755954 0.0026,-0.632606 0.0026,-1.262566 0,-1.889879 0.0026,-0.380622 0.0026,-0.758601 0,-1.13393 0.0026,-0.128638 0.0026,-0.25463 0,-0.377976 -0.123346,-0.380622 -0.249338,-0.758598 -0.377976,-1.133928 0.0026,-0.254629 0.0026,-0.506613 0,-0.755954 0.0026,-0.758597 0.0026,-1.514549 0,-2.267855 -0.123346,-0.380624 -0.249338,-0.7586 -0.377975,-1.13393 0.0026,-0.25463 0.0026,-0.506613 0,-0.755952 -0.627314,-0.758597 -1.257274,-1.514551 -1.889882,-2.267857 0.884591,0.249339 1.766535,0.501323 2.645834,0.755953 0.506614,-0.0026 1.010583,-0.0026 1.511905,0 1.892527,-0.0026 3.782408,-0.0026 5.669643,0 3.026455,-0.0026 6.050265,-0.0026 9.071429,0 0.758598,-0.0026 1.51455,-0.0026 2.267857,0 0.25463,-0.0026 0.506614,-0.0026 0.755952,0 0.128638,-0.0026 0.25463,-0.0026 0.377976,0 0.25463,-0.128638 0.506614,-0.25463 0.755953,-0.377976 0.88459,-0.0026 1.766534,-0.0026 2.645833,0 1.514551,-0.0026 3.026455,-0.0026 4.535714,0 2.900464,-0.0026 5.798281,-0.0026 8.693453,0 0.88459,-0.0026 1.766534,-0.0026 2.645833,0 0.506614,-0.0026 1.010582,-0.0026 1.511905,0 0.128638,-0.0026 0.25463,-0.0026 0.377976,0 0.380622,-0.128638 0.758598,-0.25463 1.133929,-0.377976 0.380622,-0.0026 0.758598,-0.0026 1.133928,0 0.380622,-0.0026 0.758598,-0.0026 1.133929,0 1.51455,-0.128638 3.026455,-0.25463 4.535714,-0.377977 0.128638,-0.128637 0.25463,-0.25463 0.377976,-0.377976 0.25463,-0.128638 0.506614,-0.25463 0.755953,-0.377976 0.25463,-0.0026 0.506614,-0.0026 0.755952,0 0.758598,-0.0026 1.514551,-0.0026 2.267857,0 1.892527,-0.0026 3.782408,-0.0026 5.669643,0 0.632606,-0.0026 1.262568,-0.0026 1.889878,0 1.26257,-0.25463 2.52249,-0.506614 3.77976,-0.755952 0.50662,-0.0026 1.01059,-0.0026 1.51191,0 1.01058,-0.25463 2.01852,-0.506614 3.02381,-0.755953 0.38062,-0.0026 0.7586,-0.0026 1.13393,0 0.38062,-0.128638 0.7586,-0.25463 1.13393,-0.377976 0.50661,-0.0026 1.01058,-0.0026 1.5119,0 1.01058,-0.0026 2.01852,-0.0026 3.02381,0 2.77447,-0.0026 5.5463,-0.0026 8.31548,0 1.89252,-0.0026 3.7824,-0.0026 5.66964,0 0.50661,-0.0026 1.01058,-0.0026 1.5119,0 0.25463,-0.0026 0.50662,-0.0026 0.75596,0 0.12863,-0.0026 0.25463,-0.0026 0.37797,0 0.12864,-0.128638 0.25463,-0.25463 0.37798,-0.377976 0.12864,-0.0026 0.25463,-0.0026 0.37798,0 0.25463,-0.0026 0.50661,-0.0026 0.75595,0 1.13657,-0.0026 2.2705,-0.0026 3.40178,0 0.63261,-0.0026 1.26257,-0.0026 1.88988,0 0.50662,-0.0026 1.01059,-0.0026 1.51191,0 0.12864,-0.0026 0.25463,-0.0026 0.37798,0 0.50661,0.123346 1.01058,0.249338 1.5119,0.377976 0.63261,1.635251 1.26257,3.273148 1.88988,4.913691 0.003,0.249338 0.003,0.501322 0,0.755952 0.003,0.37533 0.003,0.753307 0,1.133929 0.003,1.257274 0.003,2.517195 0,3.779761 0.003,0.879299 0.003,1.761243 0,2.645834 -0.24934,0.501322 -0.50132,1.00529 -0.75595,1.511905 0.003,0.123346 0.003,0.249338 0,0.377976 0.003,0.501322 0.003,1.00529 0,1.511904 0.003,1.761244 0.003,3.525132 0,5.291667 0.003,1.005291 0.003,2.013227 0,3.02381 0.003,0.249338 0.003,0.501322 0,0.755952 0.003,0.249338 0.003,0.501322 0,0.755952 0.25463,0.501323 0.50661,1.005291 0.75595,1.511905 0.12864,0.123346 0.25463,0.249339 0.37798,0.377976 0.003,0.249339 0.003,0.501323 0,0.755953 0.003,0.627314 0.003,1.257275 0,1.889881 0.12864,0.249338 0.25463,0.501322 0.37797,0.755952 0.003,0.123346 0.003,0.249338 0,0.377976 0.003,0.501323 0.003,1.005291 0,1.511905 0.003,1.635251 0.003,3.273148 0,4.913691 0.003,0.879298 0.003,1.761243 0,2.645833 0.003,0.501322 0.003,1.005291 0,1.511905 -0.24933,0.249338 -0.50132,0.501322 -0.75595,0.755952 0.003,0.501322 0.003,1.005291 0,1.511905 -0.12335,0.123346 -0.24934,0.249338 -0.37798,0.377976 0.003,0.627314 0.003,1.257275 0,1.889881 -0.12334,0.249338 -0.24933,0.501322 -0.37797,0.755952 0.003,0.123347 0.003,0.249339 0,0.377977 -0.12335,0.123346 -0.24934,0.249338 -0.37798,0.377976 0.003,0.123346 0.003,0.249338 0,0.377976 -0.24934,0.249338 -0.50132,0.501322 -0.75595,0.755952 0.003,0.123347 0.003,0.249339 0,0.377976 -0.24934,0.375331 -0.50132,0.753307 -0.75595,1.133929"
       inkscape:export-xdpi="96"
       inkscape:export-ydpi="96" />
    <path
       style="fill:none;stroke:#000000;stroke-width:0.26458332px;stroke-linecap:butt;stroke-linejoin:miter;stroke-opacity:1"
       d="m 41.955357,91.380952 c 1.261618,0.378485 2.52154,0.756461 3.403957,0.945194 0.882417,0.188733 1.386388,0.188733 2.205336,0.188733 0.818947,0 1.952877,0 4.409722,0 2.456846,0 6.236606,0 10.205356,0 3.96875,0 8.12649,0 11.087303,0 2.960813,0 4.7247,0 6.047617,0 1.322916,0 2.204862,0 3.087055,-0.126441 0.882193,-0.126441 1.76414,-0.378425 2.582838,-0.503968 0.818698,-0.125542 1.574652,-0.125542 2.393849,-0.251983 0.819197,-0.126441 1.701143,-0.378426 2.456846,-0.503968 0.755702,-0.125543 1.385661,-0.125543 1.763638,-0.189862 0.377978,-0.06432 0.503969,-0.190312 1.070933,-0.251985 0.566964,-0.06167 1.574902,-0.06167 2.331087,-0.125059 0.756185,-0.06338 1.260153,-0.189377 1.763889,-0.251984 0.503735,-0.06261 1.007703,-0.06261 1.889648,-0.06261 0.881945,0 2.141869,0 4.787699,0 2.64583,0 6.67758,0 11.59127,0 4.91369,0 10.70932,0 14.42609,0 3.71676,0 5.35466,0 6.48859,0 1.13393,0 1.76389,0 2.20407,0.06326 0.44017,0.06326 0.69216,0.189253 1.00794,0.251985 0.31577,0.06273 0.69374,0.06273 1.0707,0.188929 0.37696,0.126198 0.75493,0.378179 1.19693,0.503967 0.44199,0.125789 0.94596,0.125789 1.32314,0.18905 0.37718,0.06326 0.62916,0.189251 0.81895,0.251983 0.18978,0.06273 0.31577,0.06273 0.064,0.250787 -0.25174,0.188055 -0.88169,0.56603 -1.51476,0.945875"
       id="path73"
       inkscape:connector-curvature="0"
       inkscape:path-effect="#path-effect75"
       inkscape:original-d="m 41.955357,91.380952 c 1.262565,0.37533 2.522487,0.753306 3.779761,1.133927 0.506613,-0.0026 1.010584,-0.0026 1.511906,0 1.136573,-0.0026 2.270503,-0.0026 3.401785,0 3.782409,-0.0026 7.562169,-0.0026 11.339284,0 4.160385,-0.0026 8.318125,-0.0026 12.473215,0 1.766536,-0.0026 3.530423,-0.0026 5.291667,0 0.884589,-0.0026 1.766535,-0.0026 2.645833,0 0.884589,-0.254629 1.766536,-0.506613 2.645833,-0.755951 0.758598,-0.0026 1.514552,-0.0026 2.267858,0 0.884589,-0.25463 1.766535,-0.506614 2.645833,-0.755952 0.632606,-0.0026 1.262565,-0.0026 1.889882,0 0.128638,-0.128638 0.25463,-0.25463 0.377976,-0.377978 1.010581,-0.0026 2.018519,-0.0026 3.023809,0 0.506613,-0.128638 1.010581,-0.25463 1.511906,-0.377976 0.506613,-0.0026 1.010581,-0.0026 1.511903,0 1.262568,-0.0026 2.522492,-0.0026 3.779762,0 4.03439,-0.0026 8.06614,-0.0026 12.09524,0 5.79828,-0.0026 11.59391,-0.0026 17.3869,0 1.64054,-0.0026 3.27844,-0.0026 4.91369,0 0.63261,-0.0026 1.26257,-0.0026 1.88988,0 0.25463,0.123346 0.50662,0.249338 0.75596,0.377976 0.38062,-0.0026 0.75859,-0.0026 1.13392,0 0.38063,0.24934 0.7586,0.501324 1.13393,0.755954 0.50662,-0.0026 1.01059,-0.0026 1.51191,0 0.25463,0.123346 0.50661,0.249338 0.75595,0.377976 0.12864,-0.0026 0.25463,-0.0026 0.37798,0 -0.62731,0.37533 -1.25726,0.753308 -1.88986,1.13393"
       inkscape:export-xdpi="96"
       inkscape:export-ydpi="96" />
    <path
       style="fill:none;stroke:#000000;stroke-width:0.26458332px;stroke-linecap:butt;stroke-linejoin:miter;stroke-opacity:1"
       d="m 91.848214,42.622022 c 0.377429,0.880669 0.755404,1.762612 0.944666,2.706869 0.189261,0.944257 0.189261,1.952192 0.251993,2.645678 0.06273,0.693486 0.188723,1.071462 0.251984,1.511905 0.06326,0.440443 0.06326,0.94441 0.126053,1.511681 0.06279,0.567271 0.188784,1.19723 0.251984,2.015873 0.0632,0.818644 0.0632,1.826579 0.0632,2.456539 0,0.62996 0,0.881946 0.125728,1.260716 0.125728,0.37877 0.377713,0.882738 0.503969,1.259919 0.126257,0.377182 0.126257,0.629166 0.188989,0.881945 0.06273,0.252779 0.188723,0.504762 0.251984,0.755953 0.06326,0.25119 0.06326,0.503174 0.06326,1.19613 0,0.692955 0,1.826885 0,2.519841 0,0.692956 0,0.944942 0.06273,1.260451 0.06273,0.315509 0.188724,0.693485 0.251984,1.133928 0.06326,0.440442 0.06326,0.94441 0.06326,1.700363 0,0.755953 0,1.763888 0,2.708829 0,0.944941 0,1.826885 0.063,2.332177 0.063,0.505292 0.188988,0.631284 0.251984,0.755953 0.063,0.124669 0.063,0.250661 0.063,0.376652 0,0.125992 0,0.251984 0,0.62996 0,0.377976 0,1.007938 0,2.393851 0,1.385913 0,3.527778 0,5.354662 0,1.826885 0,3.338788 0,4.409721 0,1.070933 0,1.700895 -0.06167,2.078871 -0.06167,0.377975 -0.187665,0.503967 -0.251984,0.692955 -0.06432,0.188988 -0.06432,0.440972 -0.06432,0.692956 0,0.251984 0,0.503968 0,0.881945 0,0.377977 0,0.881945 0.25178,1.512922 0.251781,0.630977 0.75575,1.38693 1.070669,1.890675 0.314919,0.503744 0.440911,0.755728 0.567432,1.008771"
       id="path77"
       inkscape:connector-curvature="0"
       inkscape:path-effect="#path-effect79"
       inkscape:original-d="m 91.848214,42.622022 c 0.380622,0.879301 0.758597,1.761244 1.133927,2.645834 0.0026,1.005292 0.0026,2.013227 0,3.023809 0.128638,0.375332 0.25463,0.753308 0.377976,1.13393 0.0026,0.501322 0.0026,1.005289 0,1.511903 0.128638,0.627317 0.25463,1.257276 0.377976,1.889882 0.0026,1.005292 0.0026,2.013227 0,3.023809 0.0026,0.249338 0.0026,0.501324 0,0.755954 0.254632,0.501322 0.506616,1.00529 0.755954,1.511903 0.0026,0.249338 0.0026,0.501322 0,0.755952 0.128638,0.249341 0.25463,0.501324 0.377976,0.755954 0.0026,0.249338 0.0026,0.501322 0,0.755952 0.0026,1.131281 0.0026,2.265211 0,3.401785 0.0026,0.249338 0.0026,0.501324 0,0.755954 0.128638,0.37533 0.25463,0.753306 0.377976,1.133927 0.0026,0.501322 0.0026,1.00529 0,1.511906 0.0026,1.00529 0.0026,2.013225 0,3.023809 0.0026,0.879298 0.0026,1.761242 0,2.645834 0.128638,0.123346 0.25463,0.249338 0.377976,0.377975 0.0026,0.123347 0.0026,0.249339 0,0.377976 0.0026,0.123346 0.0026,0.249338 0,0.377976 0.0026,0.627314 0.0026,1.257276 0,1.889882 0.0026,2.13922 0.0026,4.281085 0,6.425594 0.0026,1.50926 0.0026,3.021163 0,4.535715 0.0026,0.627314 0.0026,1.257276 0,1.889881 -0.123346,0.123347 -0.249338,0.249339 -0.377976,0.377976 0.0026,0.249338 0.0026,0.501322 0,0.755952 0.0026,0.249338 0.0026,0.501322 0,0.755952 0.0026,0.501324 0.0026,1.005292 0,1.511905 0.506613,0.753306 1.010581,1.50926 1.511906,2.267858 0.128637,0.249338 0.254629,0.501322 0.377975,0.755952"
       inkscape:export-xdpi="96"
       inkscape:export-ydpi="96" />
    <path
       style="fill:#ff0000;stroke-width:0.26458332"
       id="path102"
       d="m 38.149524,40.62527 c 0.929553,0.982088 1.867392,1.959293 2.869687,2.867589 0.953497,0.81983 1.897369,1.649986 2.815886,2.508887 0.134649,0.128405 0.269298,0.256808 0.403948,0.38521 0,0 -4.746213,2.923529 -4.746213,2.923529 v 0 c -0.133117,-0.127315 -0.266237,-0.254627 -0.399354,-0.381942 -0.913032,-0.857893 -1.8494,-1.689618 -2.790274,-2.516793 -1.003734,-0.926666 -1.934647,-1.928429 -2.941082,-2.852756 0,0 4.787402,-2.933724 4.787402,-2.933724 z"
       inkscape:connector-curvature="0"
       inkscape:export-xdpi="96"
       inkscape:export-ydpi="96" />
    <path
       style="fill:#0000ff;stroke-width:0.26458332"
       id="path104"
       d="m 38.558634,85.425186 c 1.34648,0.637352 2.717553,1.191935 4.012609,1.932356 1.298168,0.734359 2.55405,1.530458 3.730657,2.447329 0.613685,0.440084 0.312013,0.221345 0.905201,0.655963 0,0 -4.711145,2.983862 -4.711145,2.983862 v 0 c -0.588843,-0.440504 -0.28933,-0.215116 -0.89839,-0.676362 -1.154006,-0.898363 -2.385218,-1.680369 -3.662529,-2.392669 -1.299027,-0.718701 -2.673609,-1.274649 -4.045222,-1.839103 0,0 4.668819,-3.111376 4.668819,-3.111376 z"
       inkscape:connector-curvature="0"
       inkscape:export-xdpi="96"
       inkscape:export-ydpi="96" />
    <path
       style="fill:#0000ff;stroke-width:0.26458332"
       id="path106"
       d="m 90.706997,38.490588 c 0.935884,1.121455 1.834727,2.281494 2.853859,3.329824 0.83152,0.622342 1.586246,1.324064 2.356239,2.017365 0.742008,0.428194 1.188485,1.178912 1.866035,1.677946 0.08926,0.07688 0.17852,0.153757 0.26778,0.230637 0,0 -4.761283,2.968278 -4.761283,2.968278 v 0 c -0.08453,-0.07206 -0.169058,-0.144126 -0.253587,-0.216188 -0.64501,-0.549765 -1.145506,-1.250813 -1.865495,-1.718233 -0.776312,-0.701289 -1.559809,-1.388534 -2.350903,-2.07282 -1.008451,-1.096899 -1.923028,-2.276449 -2.937613,-3.368583 0,0 4.824968,-2.848226 4.824968,-2.848226 z"
       inkscape:connector-curvature="0"
       inkscape:export-xdpi="96"
       inkscape:export-ydpi="96" />
    <path
       style="fill:#ff0000;stroke-width:0.26458332"
       id="path108"
       d="m 94.402904,84.306562 c 0.306186,1.147927 0.944692,2.149073 1.645456,3.092165 0.764797,0.911418 1.552321,1.803013 2.323405,2.709656 0.413078,0.524145 0.818189,1.053608 1.215548,1.589725 0,0 -4.769167,2.831266 -4.769167,2.831266 v 0 c -0.399389,-0.522732 -0.808448,-1.036915 -1.219832,-1.550244 -0.774259,-0.920355 -1.579222,-1.812493 -2.338311,-2.744742 -0.730367,-1.002406 -1.376625,-2.06303 -1.785631,-3.241313 0,0 4.928532,-2.686513 4.928532,-2.686513 z"
       inkscape:connector-curvature="0"
       inkscape:export-xdpi="96"
       inkscape:export-ydpi="96" />
    <path
       style="fill:#ff0000;stroke-width:0.26458332"
       id="path110"
       d="m 142.50034,36.825388 c 0.94681,0.727443 1.88512,1.463058 2.85103,2.164784 0.16112,0.109958 0.31809,0.226255 0.48335,0.329874 0.37767,0.236797 0.79475,0.410575 1.15779,0.66924 0.58174,0.414488 1.06724,0.988819 1.59428,1.46835 0,0 -4.71357,2.91941 -4.71357,2.91941 v 0 c -0.5012,-0.455279 -0.97114,-0.984488 -1.53591,-1.363819 -0.38309,-0.257312 -0.80679,-0.449426 -1.19588,-0.697595 -0.16918,-0.107905 -0.32992,-0.228491 -0.49488,-0.342738 -0.97131,-0.719556 -1.91006,-1.481701 -2.90196,-2.173539 0,0 4.75575,-2.973967 4.75575,-2.973967 z"
       inkscape:connector-curvature="0"
       inkscape:export-xdpi="96"
       inkscape:export-ydpi="96" />
    <path
       style="fill:#0000ff;stroke-width:0.26458332"
       id="path112"
       d="m 140.95905,85.22646 c 0.89473,0.826717 1.51123,1.919698 2.15392,2.945302 0.54482,0.987917 1.06428,1.983457 1.65155,2.946829 0.57466,0.921427 1.10506,1.856626 1.79621,2.696956 0.11811,0.149707 0.23623,0.299413 0.35434,0.44912 0,0 -4.78604,2.854341 -4.78604,2.854341 v 0 c -0.11474,-0.147117 -0.22948,-0.294233 -0.34422,-0.441349 -0.70484,-0.863084 -1.26732,-1.807652 -1.84108,-2.760729 -0.5858,-0.962977 -1.11306,-1.949392 -1.63184,-2.950607 -0.62017,-0.99355 -1.22746,-2.052664 -2.14025,-2.806139 0,0 4.78741,-2.933724 4.78741,-2.933724 z"
       inkscape:connector-curvature="0"
       inkscape:export-xdpi="96"
       inkscape:export-ydpi="96" />
  </g>
</svg>
