<?xml version="1.0" encoding="UTF-8" standalone="no"?>
<!-- Created with Inkscape (http://www.inkscape.org/) -->

<svg
   xmlns:dc="http://purl.org/dc/elements/1.1/"
   xmlns:cc="http://creativecommons.org/ns#"
   xmlns:rdf="http://www.w3.org/1999/02/22-rdf-syntax-ns#"
   xmlns:svg="http://www.w3.org/2000/svg"
   xmlns="http://www.w3.org/2000/svg"
   xmlns:sodipodi="http://sodipodi.sourceforge.net/DTD/sodipodi-0.dtd"
   xmlns:inkscape="http://www.inkscape.org/namespaces/inkscape"
   width="210mm"
   height="297mm"
   viewBox="0 0 210 297"
   version="1.1"
   id="svg120"
   inkscape:version="0.92.1 r15371"
   sodipodi:docname="q1c1.svg">
  <defs
     id="defs114">
    <inkscape:path-effect
       effect="bspline"
       id="path-effect148"
       is_visible="true"
       weight="33.333333"
       steps="2"
       helper_size="0"
       apply_no_weight="true"
       apply_with_weight="true"
       only_selected="false" />
    <inkscape:path-effect
       effect="bspline"
       id="path-effect144"
       is_visible="true"
       weight="33.333333"
       steps="2"
       helper_size="0"
       apply_no_weight="true"
       apply_with_weight="true"
       only_selected="false" />
    <inkscape:path-effect
       effect="bspline"
       id="path-effect140"
       is_visible="true"
       weight="33.333333"
       steps="2"
       helper_size="0"
       apply_no_weight="true"
       apply_with_weight="true"
       only_selected="false" />
    <inkscape:path-effect
       effect="bspline"
       id="path-effect136"
       is_visible="true"
       weight="33.333333"
       steps="2"
       helper_size="0"
       apply_no_weight="true"
       apply_with_weight="true"
       only_selected="false" />
    <inkscape:path-effect
       effect="bspline"
       id="path-effect132"
       is_visible="true"
       weight="33.333333"
       steps="2"
       helper_size="0"
       apply_no_weight="true"
       apply_with_weight="true"
       only_selected="false" />
    <inkscape:path-effect
       effect="bspline"
       id="path-effect128"
       is_visible="true"
       weight="33.333333"
       steps="2"
       helper_size="0"
       apply_no_weight="true"
       apply_with_weight="true"
       only_selected="false" />
    <inkscape:path-effect
       effect="bspline"
       id="path-effect124"
       is_visible="true"
       weight="33.333333"
       steps="2"
       helper_size="0"
       apply_no_weight="true"
       apply_with_weight="true"
       only_selected="false" />
  </defs>
  <sodipodi:namedview
     id="base"
     pagecolor="#ffffff"
     bordercolor="#666666"
     borderopacity="1.0"
     inkscape:pageopacity="0.0"
     inkscape:pageshadow="2"
     inkscape:zoom="0.7"
     inkscape:cx="327.8691"
     inkscape:cy="618.47165"
     inkscape:document-units="mm"
     inkscape:current-layer="layer1"
     showgrid="false"
     inkscape:window-width="1920"
     inkscape:window-height="1001"
     inkscape:window-x="0"
     inkscape:window-y="30"
     inkscape:window-maximized="1" />
  <metadata
     id="metadata117">
    <rdf:RDF>
      <cc:Work
         rdf:about="">
        <dc:format>image/svg+xml</dc:format>
        <dc:type
           rdf:resource="http://purl.org/dc/dcmitype/StillImage" />
        <dc:title></dc:title>
      </cc:Work>
    </rdf:RDF>
  </metadata>
  <g
     inkscape:label="Layer 1"
     inkscape:groupmode="layer"
     id="layer1">
    <path
       style="fill:none;stroke:#000000;stroke-width:0.26458332px;stroke-linecap:butt;stroke-linejoin:miter;stroke-opacity:1"
       d="m 39.309524,84.199404 c 0,-0.25463 0,-0.506614 0,-0.695602 0,-0.188988 0,-0.31498 -0.125463,-0.439385 -0.125462,-0.124404 -0.377446,-0.250397 -0.503968,-0.629961 -0.126521,-0.379564 -0.126521,-1.009524 -0.126521,-1.639484 0,-0.629959 0,-1.259921 0,-1.763889 0,-0.503968 0,-0.881944 0.06432,-1.133928 0.06432,-0.251984 0.19031,-0.377976 0.251983,-0.503969 0.06167,-0.125993 0.06167,-0.251985 0.06167,-0.440972 0,-0.188988 0,-0.440972 0.06432,-0.62996 0.06432,-0.188988 0.190311,-0.31498 0.504677,-0.945214 0.314367,-0.630233 0.818334,-1.764161 1.069609,-2.393848 0.251274,-0.629687 0.251274,-0.755679 0.315064,-0.944933 0.06379,-0.189253 0.189783,-0.441238 0.251985,-0.755953 0.0622,-0.314715 0.0622,-0.692691 0.0622,-1.322652 0,-0.629961 0,-1.511904 0,-2.267855 0,-0.755952 0,-1.385915 0,-1.826886 0,-0.440972 0,-0.692956 0,-0.881944 0,-0.188988 0,-0.31498 -0.126257,-0.629167 -0.126258,-0.314188 -0.378242,-0.818156 -0.503969,-1.385913 -0.125728,-0.567757 -0.125728,-1.197717 -0.188989,-1.701157 -0.06326,-0.50344 -0.189252,-0.881416 -0.251984,-1.196925 -0.06273,-0.315509 -0.06273,-0.567493 -0.125991,-0.818683 -0.06326,-0.25119 -0.189253,-0.503177 -0.251984,-0.881946 -0.06273,-0.378769 -0.06273,-0.882737 -0.251952,-1.448767 -0.189222,-0.56603 -0.567198,-1.195992 -0.755953,-1.574902 -0.188754,-0.37891 -0.188754,-0.504902 -0.251984,-0.819492 -0.06323,-0.314591 -0.189222,-0.818559 -0.315246,-1.196131 -0.126023,-0.377572 -0.252015,-0.629556 -0.314747,-0.94533 -0.06273,-0.315774 -0.06273,-0.69375 -0.125991,-1.007936 -0.06326,-0.314186 -0.189253,-0.566172 -0.251985,-0.81895 -0.06273,-0.252777 -0.06273,-0.504761 -0.188723,-0.755422 C 37.167658,49.551587 36.915674,49.299603 36.789682,48.9833 36.66369,48.666997 36.66369,48.289019 36.60043,47.974833 c -0.06326,-0.314187 -0.189253,-0.566171 -0.251984,-0.755952 -0.06273,-0.189781 -0.06273,-0.315773 -0.06273,-0.945734 0,-0.629961 0,-1.763889 1.891204,-2.32953 1.891204,-0.56564 5.670965,-0.565641 7.938822,-0.565641 2.267857,0 3.02381,0 3.779762,0 0.755952,0 1.511905,0 2.205135,-0.126631 0.693229,-0.12663 1.32319,-0.378614 1.826885,-0.503968 0.503694,-0.125353 0.88167,-0.125353 1.385638,-0.125353 0.503969,0 1.133929,0 1.701158,-0.126786 0.567229,-0.126786 1.071197,-0.37877 1.448909,-0.503968 0.377712,-0.125199 0.629696,-0.125199 1.19666,-0.125199 0.566964,0 1.448909,0 3.275794,0 1.826885,0 4.59871,0 6.362599,0 1.763889,0 2.519841,0 3.149801,0 0.629961,0 1.133929,0 1.575166,-0.06352 0.441236,-0.06352 0.819213,-0.189517 1.133929,-0.251984 0.314715,-0.06247 0.566699,-0.06247 1.007671,-0.06247 0.440972,0 1.070933,0 2.393849,0 1.322917,0 3.33879,0 5.480655,0 2.141865,0 4.409722,0 5.984623,0 1.574901,0 2.456845,0 3.086806,0 0.62996,0 1.007936,0 1.448519,0.06323 0.440584,0.06323 0.944552,0.189222 1.385913,0.251984 0.441361,0.06276 0.819338,0.06276 1.638286,0.06276 0.818948,0 2.078869,0 4.220731,0 2.14187,0 5.16568,0 8.94544,0 3.77976,0 8.31548,0 11.40228,0 3.08681,0 4.7247,0 5.85863,0 1.13393,0 1.76389,0 2.14187,-0.06432 0.37797,-0.06432 0.50397,-0.190314 0.81895,-0.251986 0.31498,-0.06167 0.81894,-0.06167 1.25991,-0.06167 0.44098,0 0.81895,0 2.14187,0 1.32292,0 3.59078,0 5.35466,0 1.76389,0 3.02381,0 4.03175,0 1.00794,0 1.76389,0 2.20486,-0.06432 0.44097,-0.06432 0.56697,-0.190314 1.07093,-0.251986 0.50397,-0.06167 1.38592,-0.06167 2.64584,-0.06167 1.25992,0 2.89781,0 3.65269,0.376475 0.75489,0.376475 0.62889,1.132426 0.56565,1.888558 -0.0633,0.756131 -0.0633,1.512083 -0.0633,2.079048 0,0.566964 0,0.94494 0,1.196924 0,0.251984 0,0.377976 0.0627,0.567758 0.0627,0.189782 0.18873,0.441765 0.25199,1.070932 0.0633,0.629167 0.0633,1.637104 0.0633,3.337997 0,1.700892 0,4.094741 0,6.047618 0,1.952877 0,3.464782 0,4.598711 0,1.133928 0,1.889881 0.0627,2.457373 0.0627,0.567493 0.18872,0.945472 0.25198,1.259922 0.0633,0.314451 0.0633,0.566435 0.0633,0.944411 0,0.377976 0,0.881945 0,2.015874 0,1.133928 0,2.897817 0,4.094742 0,1.196924 0,1.826884 0,2.267857 0,0.440972 0,0.692956 0.0627,1.008465 0.0627,0.31551 0.18873,0.693485 0.25199,1.196924 0.0633,0.50344 0.0633,1.1334 0.18905,1.638386 0.12579,0.504986 0.37777,0.882961 0.50396,1.196924 0.1262,0.313963 0.1262,0.565947 0.1262,0.754935 0,0.188988 0,0.31498 0.063,0.442296 0.063,0.127315 0.18899,0.253306 0.25198,0.566963 0.063,0.313658 0.063,0.817626 0.063,1.699571 0,0.881944 0,2.141865 0,3.404431"
       id="path122"
       inkscape:connector-curvature="0"
       inkscape:path-effect="#path-effect124"
       inkscape:original-d="m 39.309524,84.199404 c 0.0026,-0.25463 0.0026,-0.506614 0,-0.755952 0.0026,-0.128638 0.0026,-0.25463 0,-0.377976 -0.249338,-0.128638 -0.501322,-0.25463 -0.755952,-0.377978 0.0026,-0.632606 0.0026,-1.262566 0,-1.889879 0.0026,-0.632606 0.0026,-1.262568 0,-1.889882 0.0026,-0.380622 0.0026,-0.758598 0,-1.133928 0.128638,-0.128637 0.25463,-0.254629 0.377976,-0.377978 0.0026,-0.128638 0.0026,-0.25463 0,-0.377976 0.0026,-0.254629 0.0026,-0.506613 0,-0.755951 0.128638,-0.128638 0.25463,-0.25463 0.377976,-0.377976 0.506613,-1.136576 1.010581,-2.270504 1.511903,-3.401785 0.0026,-0.128638 0.0026,-0.25463 0,-0.377979 0.128638,-0.254629 0.254632,-0.506613 0.377978,-0.755951 0.0026,-0.380622 0.0026,-0.758598 0,-1.133928 0.0026,-0.884592 0.0026,-1.766535 0,-2.645833 0.0026,-0.632605 0.0026,-1.262568 0,-1.889882 0.0026,-0.254629 0.0026,-0.506613 0,-0.755951 0.0026,-0.128638 0.0026,-0.25463 0,-0.377976 -0.24934,-0.506616 -0.501324,-1.010584 -0.755954,-1.511906 0.0026,-0.632605 0.0026,-1.262565 0,-1.889882 -0.123346,-0.380621 -0.249338,-0.758597 -0.377976,-1.133927 0.0026,-0.25463 0.0026,-0.506614 0,-0.755952 -0.123346,-0.254629 -0.249338,-0.506616 -0.377975,-0.755954 0.0026,-0.506613 0.0026,-1.010581 0,-1.511903 -0.37533,-0.632606 -0.753306,-1.262568 -1.133928,-1.889882 0.0026,-0.128638 0.0026,-0.25463 0,-0.377976 -0.123346,-0.506613 -0.249341,-1.010581 -0.377978,-1.511905 -0.123346,-0.25463 -0.249338,-0.506614 -0.377976,-0.755952 0.0026,-0.380622 0.0026,-0.758598 0,-1.133928 -0.123346,-0.254629 -0.249338,-0.506616 -0.377976,-0.755954 0.0026,-0.254629 0.0026,-0.506613 0,-0.755951 -0.249338,-0.25463 -0.501322,-0.506614 -0.755952,-0.755952 0.0026,-0.380622 0.0026,-0.7586 0,-1.13393 -0.123346,-0.25463 -0.249338,-0.506614 -0.377975,-0.755952 0.0026,-0.128637 0.0026,-0.254629 0,-0.377976 0.0026,-1.136575 0.0026,-2.270503 0,-3.401784 3.782408,-0.0026 7.562169,-0.0026 11.339285,-1e-6 0.758598,-0.0026 1.514551,-0.0026 2.267857,0 0.758598,-0.0026 1.514551,-0.0026 2.267857,0 0.632606,-0.25463 1.262567,-0.506614 1.889881,-0.755952 0.380622,-0.0026 0.758598,-0.0026 1.133929,0 0.632606,-0.0026 1.262566,-0.0026 1.889881,0 0.506614,-0.25463 1.010582,-0.506614 1.511905,-0.755953 0.25463,-0.0026 0.506614,-0.0026 0.755952,0 0.88459,-0.0026 1.766535,-0.0026 2.645833,0 2.774472,-0.0026 5.546297,-0.0026 8.315476,0 0.758599,-0.0026 1.514551,-0.0026 2.267858,0 0.506614,-0.0026 1.010582,-0.0026 1.511904,0 0.380622,-0.128638 0.758599,-0.25463 1.133929,-0.377976 0.25463,-0.0026 0.506614,-0.0026 0.755952,0 0.632606,-0.0026 1.262567,-0.0026 1.889881,0 2.018519,-0.0026 4.034392,-0.0026 6.047619,0 2.270503,-0.0026 4.53836,-0.0026 6.803572,0 0.88459,-0.0026 1.766534,-0.0026 2.645833,0 0.380622,-0.0026 0.758598,-0.0026 1.133929,0 0.506614,0.123346 1.010582,0.249338 1.511904,0.377976 0.380622,-0.0026 0.758599,-0.0026 1.133929,0 1.262566,-0.0026 2.522487,-0.0026 3.779759,0 3.02646,-0.0026 6.05027,-0.0026 9.07143,0 4.53836,-0.0026 9.07408,-0.0026 13.60714,0 1.64055,-0.0026 3.27844,-0.0026 4.91369,0 0.63261,-0.0026 1.26257,-0.0026 1.88989,0 0.12863,-0.128638 0.25463,-0.25463 0.37797,-0.377976 0.50662,-0.0026 1.01058,-0.0026 1.51191,0 0.38062,-0.0026 0.75859,-0.0026 1.13393,0 2.2705,-0.0026 4.53836,-0.0026 6.80357,0 1.26256,-0.0026 2.52248,-0.0026 3.77976,0 0.7586,-0.0026 1.51455,-0.0026 2.26786,0 0.12863,-0.128638 0.25463,-0.25463 0.37797,-0.377976 0.88459,-0.0026 1.76654,-0.0026 2.64584,0 1.64054,-0.0026 3.27843,-0.0026 4.91369,0 -0.12335,0.753307 -0.24934,1.509259 -0.37798,2.267857 0.003,0.753307 0.003,1.509259 0,2.267857 0.003,0.375331 0.003,0.753307 0,1.133929 0.003,0.123346 0.003,0.249338 0,0.377976 0.12864,0.249338 0.25463,0.501322 0.37798,0.755952 0.003,1.005291 0.003,2.013228 0,3.02381 0.003,2.391203 0.003,4.785052 0,7.181547 0.003,1.509259 0.003,3.021164 0,4.535715 0.003,0.753306 0.003,1.509259 0,2.267857 0.12863,0.37533 0.25463,0.753306 0.37797,1.133928 0.003,0.249339 0.003,0.501323 0,0.755953 0.003,0.501322 0.003,1.005291 0,1.511905 0.003,1.761243 0.003,3.525132 0,5.291666 0.003,0.627315 0.003,1.257275 0,1.889881 0.003,0.249339 0.003,0.501323 0,0.755953 0.12864,0.37533 0.25463,0.753306 0.37798,1.133928 0.003,0.627315 0.003,1.257275 0,1.889881 0.25463,0.375331 0.50661,0.753307 0.75595,1.133929 0.003,0.249338 0.003,0.501322 0,0.755952 0.003,0.123346 0.003,0.249338 0,0.377976 0.12864,0.123347 0.25463,0.249339 0.37798,0.377977 0.003,0.501322 0.003,1.00529 0,1.511904 0.003,1.257275 0.003,2.517196 0,3.779762"
       inkscape:export-xdpi="96"
       inkscape:export-ydpi="96" />
    <path
       style="fill:none;stroke:#000000;stroke-width:0.26458332px;stroke-linecap:butt;stroke-linejoin:miter;stroke-opacity:1"
       d="m 39.309524,84.199404 c 1.008358,0.756269 2.016297,1.512223 2.773359,1.89004 0.757063,0.377817 1.261031,0.377817 1.890992,0.377817 0.629961,0 1.385913,0 2.141616,0.06318 0.755702,0.06318 1.511653,0.189167 2.330853,0.251984 0.819199,0.06282 1.701143,0.06282 3.150051,0.06282 1.448909,0 3.464782,0 5.165675,0 1.700892,0 3.086806,0 3.96875,0 0.881943,0 1.259919,0 1.511905,0 0.251985,0 0.377976,0 0.503968,-0.06432 0.125992,-0.06432 0.251984,-0.190311 0.441237,-0.315774 0.189252,-0.125463 0.441236,-0.251455 0.69322,-0.377447 0.251984,-0.125992 0.503968,-0.251984 0.818685,-0.314186 0.314716,-0.0622 0.692692,-0.0622 1.070932,-0.125727 0.37824,-0.06353 0.756216,-0.189518 1.007935,-0.251986 0.25172,-0.06247 0.377712,-0.06247 0.755689,-0.06247 0.377977,0 1.007937,0 2.07887,0 1.070932,0 2.582836,0 6.17361,0 3.590774,0 9.260416,0 12.536211,0 3.275794,0 4.157737,0 5.102678,0 0.944941,0 1.952877,0 2.646098,-0.06353 0.693222,-0.06352 1.071197,-0.189517 1.637897,-0.251983 0.566699,-0.06247 1.32265,-0.06247 2.078781,-0.125713 0.756134,-0.06325 1.512084,-0.189238 2.267854,-0.251984 0.75578,-0.06275 1.51173,-0.06275 2.26768,-0.06275 0.75596,0 1.51191,0 2.51985,0 1.00793,0 2.26785,0 3.21279,0 0.94494,0 1.5749,0 2.20422,0.126265 0.62932,0.126264 1.25928,0.378248 2.39362,0.630128 1.13434,0.25188 2.77224,0.503865 4.03194,0.755931 1.2597,0.252065 2.14164,0.504049 3.08703,0.629791 0.94539,0.125743 1.95333,0.125743 2.89782,0.251985 0.94449,0.126241 1.82644,0.378227 2.70884,0.503968 0.88239,0.125741 1.76433,0.125741 2.77227,0.125741 1.00793,0 2.14186,0 2.83482,0 0.69295,0 0.94494,0 1.13392,0 0.18899,0 0.31499,0 0.43966,0.063 0.12466,0.063 0.25066,0.188987 0.50396,0.251983 0.25331,0.063 0.63129,0.063 1.19826,0.063 0.56696,0 1.32291,0 1.88987,0 0.56696,0 0.94494,0 1.19693,0 0.25198,0 0.37797,0 0.50396,0 0.126,0 0.25199,0 0.37798,-0.06432 0.12599,-0.06432 0.25198,-0.190309 0.62996,-0.251983 0.37798,-0.06167 1.00794,-0.06167 2.14187,-0.06167 1.13393,0 2.77182,0 3.96875,0 1.19692,0 1.95287,0 2.4571,-0.06379 0.50424,-0.06379 0.75622,-0.18978 1.00794,-0.251982 0.25172,-0.0622 0.50371,-0.0622 0.88169,-0.0622 0.37797,0 0.88194,0 1.19692,0 0.31498,0 0.44097,0 0.69316,-0.12701 0.25219,-0.12701 0.63016,-0.378992 1.13328,-0.377701 0.50311,0.0013 1.13305,0.253274 1.76163,0.504711"
       id="path126"
       inkscape:connector-curvature="0"
       inkscape:path-effect="#path-effect128"
       inkscape:original-d="m 39.309524,84.199404 c 1.010581,0.753305 2.018519,1.50926 3.023809,2.267857 0.506613,-0.0026 1.010581,-0.0026 1.511906,0 0.758597,-0.0026 1.514549,-0.0026 2.267855,0 0.7586,0.123346 1.514551,0.249338 2.267857,0.377976 0.884592,-0.0026 1.766536,-0.0026 2.645833,0 2.01852,-0.0026 4.034393,-0.0026 6.047621,0 1.388557,-0.0026 2.774471,-0.0026 4.157737,0 0.380621,-0.0026 0.758597,-0.0026 1.13393,0 0.128638,-0.0026 0.254629,-0.0026 0.377976,0 0.128637,-0.128638 0.254629,-0.25463 0.377975,-0.377976 0.25463,-0.128638 0.506614,-0.25463 0.755952,-0.377976 0.25463,-0.128638 0.506614,-0.25463 0.755952,-0.377976 0.380624,-0.0026 0.7586,-0.0026 1.13393,0 0.380621,-0.128637 0.758597,-0.254629 1.133927,-0.377978 0.128638,-0.0026 0.25463,-0.0026 0.377976,0 0.632608,-0.0026 1.262568,-0.0026 1.889882,0 1.514551,-0.0026 3.026455,-0.0026 4.535715,0 5.672288,-0.0026 11.34193,-0.0026 17.008927,0 0.884592,-0.0026 1.766535,-0.0026 2.645833,0 1.010584,-0.0026 2.01852,-0.0026 3.023809,0 0.380625,-0.128638 0.7586,-0.25463 1.13393,-0.377976 0.758598,-0.0026 1.514549,-0.0026 2.267858,0 0.758596,-0.128638 1.514546,-0.25463 2.267856,-0.377976 0.7586,-0.0026 1.51455,-0.0026 2.26786,0 0.7586,-0.0026 1.51455,-0.0026 2.26785,0 1.26257,-0.0026 2.52249,-0.0026 3.77977,0 0.6326,-0.0026 1.26256,-0.0026 1.88988,0 0.6326,0.249338 1.26256,0.501322 1.88988,0.755952 1.64054,0.249341 3.27844,0.501324 4.91369,0.755954 0.88459,0.249338 1.76653,0.501322 2.64583,0.755952 1.01058,-0.0026 2.01852,-0.0026 3.02381,0 0.88459,0.249338 1.76654,0.501322 2.64583,0.755951 0.8846,-0.0026 1.76654,-0.0026 2.64584,0 1.13657,-0.0026 2.2705,-0.0026 3.40178,0 0.25463,-0.0026 0.50662,-0.0026 0.75596,0 0.12863,-0.0026 0.25463,-0.0026 0.37797,0 0.12864,0.123347 0.25463,0.249338 0.37798,0.377976 0.38062,-0.0026 0.7586,-0.0026 1.13393,0 0.7586,-0.0026 1.51455,-0.0026 2.26785,0 0.38062,-0.0026 0.7586,-0.0026 1.13393,0 0.12864,-0.0026 0.25463,-0.0026 0.37798,0 0.12864,-0.0026 0.25463,-0.0026 0.37797,0 0.12864,-0.128638 0.25463,-0.254629 0.37798,-0.377976 0.63261,-0.0026 1.26257,-0.0026 1.88988,0 1.64055,-0.0026 3.27844,-0.0026 4.91369,0 0.7586,-0.0026 1.51455,-0.0026 2.26786,0 0.25463,-0.128637 0.50661,-0.254629 0.75595,-0.377975 0.25463,-0.0026 0.50662,-0.0026 0.75595,0 0.50662,-0.0026 1.01059,-0.0026 1.51191,0 0.12864,-0.0026 0.25463,-0.0026 0.37798,0 0.38062,-0.25463 0.75859,-0.506614 1.13392,-0.755952 0.63259,0.249338 1.26253,0.501322 1.88983,0.755952"
       inkscape:export-xdpi="96"
       inkscape:export-ydpi="96" />
    <path
       style="fill:none;stroke:#000000;stroke-width:0.26458332px;stroke-linecap:butt;stroke-linejoin:miter;stroke-opacity:1"
       d="m 97.517856,42.622022 c 0.125707,1.005659 0.251699,2.013594 0.503552,2.959036 0.251853,0.945442 0.629829,1.827386 0.81909,2.456662 0.189262,0.629277 0.189262,1.007253 0.251994,1.385758 0.06273,0.378505 0.188724,0.756482 0.251985,1.385913 0.06326,0.629432 0.06326,1.511375 0.125992,2.141864 0.06273,0.630489 0.188724,1.008467 0.251985,1.322918 0.06326,0.314451 0.06326,0.566434 0.06326,0.881414 0,0.31498 0,0.692956 0,1.574901 0,0.881945 0,2.267859 0,3.275794 0,1.007936 0,1.637898 0.125788,2.142882 0.125788,0.504984 0.377778,0.882962 0.503968,1.133929 0.1262,0.250966 0.1262,0.376958 0.1262,0.565946 0,0.188988 0,0.440974 0,0.881946 0,0.440972 0,1.070932 0,2.51984 0,1.448909 0,3.716766 0.0627,5.040211 0.0627,1.323445 0.18872,1.701424 0.25198,2.015874 0.0633,0.31445 0.0633,0.566436 0.0633,1.070404 0,0.503968 0,1.25992 0,2.015872 0,0.755953 0,1.511905 0,2.015873 0,0.503968 0,0.755954 -0.0622,1.007673 -0.0622,0.251718 -0.18819,0.503706 -0.25198,0.692957 -0.0638,0.189251 -0.0638,0.315243 -0.12546,0.441236 -0.0617,0.125992 -0.18767,0.251983 -0.25199,0.377975 -0.0643,0.125992 -0.0643,0.251984 -0.0643,0.377976 0,0.125992 0,0.251984 0,0.692957 0,0.440973 0,1.196925 0,1.955522"
       id="path130"
       inkscape:connector-curvature="0"
       inkscape:path-effect="#path-effect132"
       inkscape:original-d="m 97.517856,42.622022 c 0.128638,1.005293 0.25463,2.013228 0.377976,3.023809 0.380622,0.879301 0.758598,1.761244 1.133928,2.645834 0.0026,0.375332 0.0026,0.753308 0,1.13393 0.128637,0.37533 0.254632,0.753306 0.377978,1.133927 0.0026,0.879301 0.0026,1.761244 0,2.645834 0.128638,0.375329 0.25463,0.753308 0.377976,1.13393 0.0026,0.249338 0.0026,0.501321 0,0.755951 0.0026,0.37533 0.0026,0.753306 0,1.133928 0.0026,1.383268 0.0026,2.769182 0,4.157739 0.0026,0.627314 0.0026,1.257276 0,1.889881 0.254626,0.37533 0.506616,0.753306 0.755956,1.133928 0.003,0.123346 0.003,0.249338 0,0.377976 0.003,0.249338 0.003,0.501324 0,0.755954 0.003,0.627314 0.003,1.257274 0,1.889879 0.003,2.265212 0.003,4.533069 0,6.803572 0.12863,0.37533 0.25463,0.753306 0.37797,1.133928 0.003,0.249338 0.003,0.501324 0,0.755954 0.003,0.753306 0.003,1.509258 0,2.267855 0.003,0.753308 0.003,1.50926 0,2.267858 0.003,0.249338 0.003,0.501324 0,0.755954 -0.12334,0.249338 -0.24934,0.501322 -0.37797,0.755951 0.003,0.123346 0.003,0.249338 0,0.377976 -0.12335,0.123346 -0.24934,0.249338 -0.37798,0.377976 0.003,0.123346 0.003,0.249338 0,0.377976 0.003,0.123346 0.003,0.249338 0,0.377976 0.003,0.753308 0.003,1.50926 0,2.267857"
       inkscape:export-xdpi="96"
       inkscape:export-ydpi="96" />
    <path
       style="fill:none;stroke:#000000;stroke-width:0.26458332px;stroke-linecap:butt;stroke-linejoin:miter;stroke-opacity:1"
       d="m 38.931548,44.88988 c 1.386384,1.00828 2.772297,2.016217 3.654005,2.709001 0.881707,0.692784 1.259685,1.070762 1.764671,1.32295 0.504985,0.252187 1.134945,0.378179 1.63869,0.504232 0.503745,0.126054 0.881722,0.252045 1.322111,0.503923 0.44039,0.251878 0.944357,0.629854 1.322652,0.881944 0.378295,0.252091 0.630279,0.378083 0.818738,0.503811 0.188458,0.125727 0.31445,0.251719 0.567228,0.377976 0.252778,0.126256 0.630753,0.252248 1.007935,0.503967 0.377182,0.25172 0.75516,0.629696 1.070669,0.881945 0.31551,0.252248 0.567494,0.37824 0.755953,0.503968 0.188459,0.125728 0.31445,0.25172 0.566739,0.440912 0.252289,0.189191 0.630266,0.441175 1.007937,0.755951 0.377672,0.314777 0.755647,0.692753 1.071156,0.945002 0.315509,0.252248 0.567493,0.37824 0.755953,0.503968 0.188459,0.125728 0.31445,0.251721 0.692816,0.503939 0.378366,0.252218 1.008326,0.630194 1.51221,0.945143 0.503884,0.31495 0.88186,0.566933 1.197065,0.755982 0.315204,0.189049 0.567188,0.315041 1.007632,0.692753 0.440443,0.377712 1.070402,1.007671 1.448379,1.385648 0.377977,0.377977 0.503969,0.503968 0.631283,0.566964 0.127315,0.063 0.253307,0.063 0.377976,0.125992 0.124669,0.063 0.250661,0.188988 0.629027,0.441206 0.378365,0.252218 1.008325,0.630194 1.385912,0.881945 0.377588,0.251751 0.50358,0.377743 0.818771,0.629886 0.315192,0.252142 0.819159,0.630118 1.512544,1.00821 0.693384,0.378092 1.575327,0.756068 2.204649,1.133771 0.629322,0.377703 1.007298,0.755678 1.449204,1.007895 0.441906,0.252217 0.945874,0.378209 1.701249,0.756175 0.755376,0.377966 1.763312,1.007926 2.582922,1.385883 0.819609,0.377957 1.449569,0.503948 1.952824,0.692936 0.503255,0.188988 0.881234,0.440975 1.132913,0.629759 0.251678,0.188785 0.37767,0.314777 0.69265,0.629756 0.31498,0.31498 0.818948,0.818948 1.25992,1.259921 0.440972,0.440972 0.818949,0.818949 1.134459,1.071198 0.315509,0.252248 0.567493,0.37824 0.755952,0.503967 0.188458,0.125727 0.31445,0.25172 0.503438,0.440707 0.188988,0.188988 0.440972,0.440971 0.629696,0.692426 0.188725,0.251456 0.314717,0.503441 0.693119,0.882076 0.378401,0.378634 1.008361,0.882602 1.512168,1.323445 0.503807,0.440843 0.881783,0.818819 1.322755,1.259792 0.440973,0.440972 0.94494,0.94494 1.322917,1.322916 0.377977,0.377977 0.629962,0.62996 0.882475,0.819213 0.252513,0.189252 0.504497,0.315245 0.881944,0.629961 0.377447,0.314716 0.881415,0.818683 1.197718,1.070667 0.316304,0.251984 0.442296,0.251984 0.756164,0.441131 0.313868,0.189147 0.817836,0.567123 1.132604,0.818949 0.314769,0.251826 0.440761,0.377818 0.69354,0.504075 0.252778,0.126257 0.630755,0.252248 0.94547,0.37824 0.314715,0.125992 0.566699,0.251984 0.944675,0.440972 0.377976,0.188987 0.881946,0.440972 1.196397,0.629695 0.31445,0.188723 0.440442,0.314715 0.692732,0.503907 0.25229,0.189192 0.630265,0.441177 0.881943,0.629961 0.251679,0.188785 0.37767,0.314777 0.377671,0.314777 0,0 -0.125992,-0.125992 -0.0632,-3.06e-4 0.06279,0.125687 0.314778,0.503662 0.50397,0.755952 0.189192,0.25229 0.315184,0.378282 0.441388,-0.0012 0.126203,-0.379458 0.252194,-1.261403 0.377764,-2.140384"
       id="path134"
       inkscape:connector-curvature="0"
       inkscape:path-effect="#path-effect136"
       inkscape:original-d="m 38.931548,44.88988 c 1.388557,1.005292 2.774471,2.013228 4.157736,3.023809 0.380622,0.37533 0.758601,0.753308 1.13393,1.13393 0.632606,0.123346 1.262566,0.249338 1.88988,0.377976 0.380624,0.123346 0.7586,0.249338 1.13393,0.377976 0.506613,0.37533 1.010581,0.753305 1.511903,1.133927 0.254632,0.123349 0.506616,0.249341 0.755954,0.377978 0.128638,0.123347 0.25463,0.249339 0.377976,0.377976 0.380622,0.123346 0.758597,0.249338 1.133927,0.377976 0.380622,0.37533 0.7586,0.753306 1.13393,1.133928 0.25463,0.123346 0.506614,0.249338 0.755952,0.377975 0.128638,0.123349 0.25463,0.249341 0.377976,0.377979 0.380621,0.249338 0.758597,0.501322 1.13393,0.755951 0.380622,0.37533 0.758597,0.753306 1.133927,1.133928 0.25463,0.123346 0.506614,0.249338 0.755952,0.377976 0.128638,0.123348 0.25463,0.24934 0.377976,0.377978 0.632608,0.37533 1.262568,0.753306 1.889881,1.133928 0.380622,0.249338 0.758598,0.501321 1.13393,0.755951 0.25463,0.123346 0.506614,0.249338 0.755952,0.377976 0.632606,0.627316 1.262565,1.257276 1.889882,1.889882 0.128638,0.123346 0.254629,0.249338 0.377976,0.377975 0.128637,-0.0026 0.254629,-0.0026 0.377975,0 0.128638,0.123347 0.25463,0.249338 0.377976,0.377976 0.632606,0.375333 1.262565,0.753309 1.889882,1.13393 0.128638,0.123346 0.25463,0.249338 0.377976,0.377976 0.506613,0.37533 1.010581,0.753306 1.511903,1.133928 0.884592,0.375332 1.766536,0.753308 2.645833,1.13393 0.380625,0.37533 0.7586,0.753305 1.13393,1.133927 0.506614,0.123346 1.010582,0.249338 1.511904,0.377976 1.010583,0.627316 2.018519,1.257276 3.023811,1.889882 0.632606,0.123346 1.262565,0.249338 1.889879,0.377975 0.380622,0.249338 0.7586,0.501325 1.13393,0.755955 0.128638,0.123346 0.25463,0.249338 0.377976,0.377975 0.506614,0.501322 1.010582,1.00529 1.511903,1.511904 0.380625,0.37533 0.758601,0.753308 1.13393,1.13393 0.25463,0.123346 0.506614,0.249338 0.755952,0.377975 0.128638,0.123347 0.25463,0.249339 0.377976,0.377976 0.25463,0.249338 0.506613,0.501322 0.755954,0.755952 0.128638,0.249338 0.25463,0.501324 0.377976,0.755954 0.632605,0.501322 1.262565,1.00529 1.889879,1.511903 0.380624,0.37533 0.7586,0.753306 1.13393,1.13393 0.506614,0.501322 1.010581,1.00529 1.511903,1.511904 0.254633,0.249338 0.506617,0.501322 0.755955,0.755951 0.254629,0.123349 0.506613,0.249341 0.755951,0.377979 0.506614,0.501322 1.010582,1.005289 1.511906,1.511903 0.128638,-0.0026 0.25463,-0.0026 0.377976,0 0.506613,0.37533 1.010581,0.753306 1.511903,1.13393 0.128638,0.123346 0.25463,0.249338 0.377976,0.377976 0.380624,0.123346 0.7586,0.249338 1.13393,0.377976 0.25463,0.123346 0.506614,0.249338 0.755952,0.377976 0.506613,0.249338 1.010584,0.501321 1.511905,0.755951 0.128638,0.123346 0.25463,0.249338 0.377976,0.377976 0.380622,0.249341 0.758598,0.501324 1.133928,0.755954 0.128637,0.123346 0.254629,0.249338 0.377976,0.377976 -0.123347,-0.128638 -0.249339,-0.25463 -0.377976,-0.377976 0.254629,0.37533 0.506613,0.753306 0.755954,1.133928 0.128638,0.123346 0.25463,0.249338 0.377976,0.377975 0.128638,-0.884589 0.254626,-1.766535 0.377976,-2.645833"
       inkscape:export-xdpi="96"
       inkscape:export-ydpi="96" />
    <path
       style="fill:none;stroke:#000000;stroke-width:0.26458332px;stroke-linecap:butt;stroke-linejoin:miter;stroke-opacity:1"
       d="m 100.16369,84.955355 c 0.7586,0 1.51455,0 2.20764,-0.253144 0.69308,-0.253144 1.32304,-0.757112 1.89003,-1.198034 0.567,-0.440923 1.07097,-0.818902 1.38579,-1.071097 0.31482,-0.252196 0.44081,-0.378187 0.75602,-0.503245 0.31522,-0.125059 0.81919,-0.251051 1.38619,-0.440289 0.56701,-0.189238 1.19697,-0.441222 1.76389,-0.62996 0.56693,-0.188738 1.0709,-0.31473 1.51184,-0.504346 0.44094,-0.189616 0.81892,-0.441602 1.13369,-0.566577 0.31478,-0.124974 0.56676,-0.124974 1.07093,-0.377976 0.50418,-0.253002 1.26013,-0.756968 1.7009,-1.007935 0.44077,-0.250967 0.56676,-0.250967 0.75601,-0.314756 0.18925,-0.06379 0.44124,-0.189783 0.75595,-0.442297 0.31472,-0.252514 0.69269,-0.630488 1.13393,-0.944941 0.44124,-0.314452 0.94521,-0.566435 1.44891,-0.944939 0.5037,-0.378504 1.00767,-0.882474 1.57491,-1.259767 0.56724,-0.377293 1.1972,-0.629277 1.88988,-1.133928 0.69268,-0.504652 1.44864,-1.260608 1.9526,-1.764575 0.50397,-0.503966 0.75595,-0.755949 1.0082,-0.944408 0.25225,-0.188459 0.50424,-0.314452 0.81895,-0.566965 0.31472,-0.252513 0.69269,-0.630489 1.07087,-0.945166 0.37818,-0.314677 0.75616,-0.566658 1.00741,-0.819212 0.25125,-0.252553 0.37724,-0.504536 0.56703,-0.692731 0.18978,-0.188195 0.44176,-0.314186 0.69348,-0.503703 0.25172,-0.189518 0.50371,-0.441507 0.81889,-0.693184 0.31518,-0.251676 0.69316,-0.503662 1.00793,-0.75595 0.31478,-0.252288 0.56677,-0.504273 0.94475,-0.882249 0.37797,-0.377975 0.88194,-0.881946 1.19692,-1.196926 0.31498,-0.31498 0.44097,-0.440971 0.75622,-0.62943 0.31524,-0.188459 0.81921,-0.440444 1.19692,-0.692957 0.37771,-0.252513 0.6297,-0.504501 1.13366,-1.008468 0.50397,-0.503967 1.25992,-1.259917 1.76389,-1.763886 0.50397,-0.503968 0.75596,-0.755957 0.94494,-0.944944 0.18899,-0.188986 0.31498,-0.314977 0.56723,-0.440175 0.25225,-0.125198 0.63023,-0.251191 1.00814,-0.440667 0.37792,-0.189475 0.7559,-0.441461 1.07067,-0.566435 0.31478,-0.124974 0.56676,-0.124974 0.75575,-0.189294 0.18899,-0.06432 0.31498,-0.190312 0.50396,-0.379299 0.18899,-0.188986 0.44098,-0.440973 0.81911,-0.755741 0.37814,-0.314767 0.88211,-0.692745 1.13261,-0.94494 0.2505,-0.252195 0.2505,-0.378187 0.37751,-0.630375 0.12701,-0.252188 0.379,-0.630169 0.50397,-0.881947 0.12497,-0.251779 0.12497,-0.377771 0.18929,-0.503763 0.0643,-0.125992 0.19031,-0.251983 0.31631,-0.377975 0.12599,-0.125993 0.25198,-0.251984 0.50397,-0.503969 0.25198,-0.251985 0.62995,-0.629959 0.81762,-0.881944 0.18766,-0.251986 0.18766,-0.377978 0.31498,-0.566965 0.12731,-0.188987 0.3793,-0.440972 0.56829,-0.629959 0.18898,-0.188986 0.31498,-0.314983 0.37665,-0.440974 0.0617,-0.125991 0.0617,-0.251983 0.12599,-0.377975 0.0643,-0.125992 0.19031,-0.251983 0.25199,-0.440971 0.0617,-0.188989 0.0617,-0.440975 0.12599,-0.629963 0.0643,-0.188988 0.19031,-0.314979 0.25199,-0.440971 0.0617,-0.125993 0.0617,-0.251985 0.18898,-0.440973 0.12732,-0.188988 0.3793,-0.44097 0.50397,-0.818946 0.12467,-0.377977 0.12467,-0.881947 0.18899,-1.196928 0.0643,-0.314981 0.19031,-0.440973 0.25198,-0.566964 0.0617,-0.125991 0.0617,-0.251983 0.18846,-0.567227 0.12678,-0.315243 0.37877,-0.819213 0.56829,-1.06961 0.18952,-0.250398 0.31551,-0.250398 0.43885,-0.250398"
       id="path138"
       inkscape:connector-curvature="0"
       inkscape:path-effect="#path-effect140"
       inkscape:original-d="m 100.16369,84.955355 c 0.7586,-0.0026 1.51455,-0.0026 2.26786,0 0.6326,-0.506613 1.26256,-1.010581 1.88988,-1.511903 0.50661,-0.380622 1.01058,-0.7586 1.5119,-1.13393 0.12864,-0.128638 0.25463,-0.25463 0.37798,-0.377976 0.50661,-0.128638 1.01058,-0.25463 1.5119,-0.377976 0.63261,-0.25463 1.26257,-0.506613 1.88988,-0.755951 0.50662,-0.128638 1.01059,-0.25463 1.51191,-0.377976 0.38062,-0.25463 0.7586,-0.506616 1.13393,-0.755954 0.25463,-0.0026 0.50661,-0.0026 0.75595,0 0.7586,-0.506614 1.51455,-1.010582 2.26786,-1.511904 0.12864,-0.0026 0.25463,-0.0026 0.37797,0 0.25463,-0.128637 0.50662,-0.254629 0.75596,-0.377976 0.38062,-0.380624 0.75859,-0.7586 1.13392,-1.13393 0.50662,-0.254629 1.01059,-0.506613 1.51191,-0.755951 0.50661,-0.506614 1.01058,-1.010582 1.5119,-1.511906 0.63261,-0.25463 1.26257,-0.506614 1.88988,-0.755952 0.7586,-0.758597 1.51456,-1.514551 2.26786,-2.267857 0.25463,-0.25463 0.50661,-0.506614 0.75595,-0.755952 0.25463,-0.128638 0.50662,-0.25463 0.75596,-0.377976 0.38062,-0.380621 0.75859,-0.7586 1.13392,-1.13393 0.38063,-0.254629 0.7586,-0.506613 1.13393,-0.755951 0.12864,-0.25463 0.25463,-0.506614 0.37798,-0.755952 0.25463,-0.128638 0.50661,-0.25463 0.75595,-0.377976 0.25463,-0.254629 0.50662,-0.506616 0.75595,-0.755954 0.38062,-0.25463 0.7586,-0.506614 1.13393,-0.755952 0.25463,-0.254629 0.50662,-0.506613 0.75596,-0.755951 0.50661,-0.506614 1.01058,-1.010584 1.5119,-1.511906 0.12864,-0.128638 0.25463,-0.25463 0.37798,-0.377976 0.50661,-0.25463 1.01058,-0.506613 1.5119,-0.755952 0.25463,-0.254629 0.50662,-0.506613 0.75595,-0.755954 0.7586,-0.758597 1.51455,-1.514549 2.26786,-2.267855 0.25463,-0.254629 0.50662,-0.506616 0.75595,-0.755954 0.12864,-0.128638 0.25463,-0.25463 0.37798,-0.377976 0.38062,-0.128637 0.7586,-0.254629 1.13393,-0.377975 0.38062,-0.25463 0.7586,-0.506614 1.13393,-0.755952 0.25463,-0.0026 0.50661,-0.0026 0.75595,0 0.12864,-0.128638 0.25463,-0.25463 0.37797,-0.377976 0.25463,-0.25463 0.50662,-0.506616 0.75596,-0.755954 0.50661,-0.380622 1.01058,-0.758598 1.5119,-1.133928 0.003,-0.128637 0.003,-0.254629 0,-0.377975 0.25463,-0.380622 0.50662,-0.758601 0.75595,-1.13393 0.003,-0.128638 0.003,-0.25463 0,-0.377976 0.12864,-0.128638 0.25463,-0.25463 0.37798,-0.377976 0.12864,-0.128638 0.25463,-0.25463 0.37798,-0.377976 0.38062,-0.380622 0.75859,-0.758597 1.13392,-1.13393 0.003,-0.128638 0.003,-0.25463 0,-0.377976 0.25463,-0.254629 0.50662,-0.506613 0.75596,-0.755951 0.12863,-0.128638 0.25463,-0.25463 0.37797,-0.377976 0.003,-0.128638 0.003,-0.25463 0,-0.377976 0.12864,-0.128638 0.25463,-0.25463 0.37798,-0.377976 0.003,-0.25463 0.003,-0.506616 0,-0.755954 0.12864,-0.128638 0.25463,-0.25463 0.37798,-0.377976 0.003,-0.128638 0.003,-0.25463 0,-0.377976 0.25463,-0.254629 0.50661,-0.506613 0.75595,-0.755951 0.003,-0.506614 0.003,-1.010584 0,-1.511906 0.12864,-0.128638 0.25463,-0.25463 0.37797,-0.377976 0.003,-0.128638 0.003,-0.25463 0,-0.377976 0.25463,-0.506613 0.50662,-1.010581 0.75596,-1.511906 0.12864,-0.0026 0.25463,-0.0026 0.37797,0"
       inkscape:export-xdpi="96"
       inkscape:export-ydpi="96" />
    <path
       style="fill:none;stroke:#000000;stroke-width:0.26458332px;stroke-linecap:butt;stroke-linejoin:miter;stroke-opacity:1"
       d="m 97.517854,42.622022 c -1.634735,0.502996 -3.272632,1.006965 -4.154833,1.321109 -0.882202,0.314143 -1.008194,0.440136 -1.260177,0.692119 -0.251984,0.251984 -0.629961,0.629959 -0.944677,0.882473 -0.314717,0.252514 -0.5667,0.378507 -0.818949,0.566966 -0.252248,0.188459 -0.504232,0.440443 -0.819009,0.692732 -0.314777,0.252289 -0.692752,0.504272 -0.94494,0.692955 -0.252189,0.188683 -0.378181,0.314675 -0.692927,0.441601 -0.314746,0.126926 -0.818714,0.252918 -1.322916,0.566964 -0.504202,0.314047 -1.008171,0.818016 -1.637866,1.259517 -0.629695,0.441501 -1.385647,0.819476 -1.826885,1.070932 -0.441238,0.251456 -0.56723,0.377448 -0.819213,0.629432 -0.251984,0.251984 -0.62996,0.62996 -0.94494,0.94494 -0.314979,0.31498 -0.566964,0.566963 -0.818684,0.756481 -0.251721,0.189517 -0.503704,0.315509 -0.881786,0.567176 -0.378082,0.251667 -0.88205,0.629644 -1.322917,0.88221 -0.440867,0.252566 -0.818843,0.378558 -1.385867,0.693049 -0.567025,0.314492 -1.322977,0.81846 -1.889881,1.133929 -0.566904,0.31547 -0.94488,0.441462 -1.322916,0.629961 -0.378037,0.188499 -0.756013,0.440483 -1.13399,0.692467 -0.377977,0.251984 -0.755953,0.503968 -1.260125,0.944635 -0.504173,0.440667 -1.134132,1.070627 -1.57484,1.449133 -0.440708,0.378506 -0.692691,0.504497 -0.881944,0.62996 -0.189252,0.125463 -0.315244,0.251455 -0.503968,0.377976 -0.188723,0.126521 -0.440707,0.252512 -0.692957,0.440972 -0.25225,0.188461 -0.504234,0.440444 -0.693222,0.629432 -0.188988,0.188988 -0.31498,0.31498 -0.503967,0.379299 -0.188988,0.06432 -0.440972,0.06432 -0.692956,0.188988 -0.251983,0.124669 -0.503967,0.376653 -0.692955,0.503968 -0.188988,0.127315 -0.314983,0.127315 -0.629962,0.377976 -0.31498,0.250661 -0.818948,0.754631 -1.259656,1.070405 -0.440707,0.315773 -0.818682,0.441765 -1.133928,0.629959 -0.315246,0.188195 -0.56723,0.440179 -0.818949,0.629696 -0.251719,0.189516 -0.503703,0.315508 -0.692955,0.440971 -0.189253,0.125463 -0.315245,0.251455 -0.692949,0.441128 -0.377703,0.189673 -1.007663,0.441658 -1.449437,0.818685 -0.441775,0.377027 -0.693759,0.880995 -1.008422,1.385069 -0.314663,0.504074 -0.69264,1.008043 -1.007937,1.511905 -0.315298,0.503862 -0.567282,1.00783 -0.881529,1.386376 -0.314248,0.378546 -0.692222,0.630531 -1.13324,0.945418 -0.441018,0.314887 -0.944985,0.692862 -1.260124,0.882961 -0.315139,0.190099 -0.441131,0.190099 -0.567123,0.251772 -0.125992,0.06167 -0.251984,0.187665 -0.440707,0.314186 -0.188724,0.126521 -0.440708,0.252513 -0.881817,0.567126 -0.441108,0.314613 -1.071067,0.818581 -1.449172,1.071727 -0.378105,0.253146 -0.504097,0.253146 -0.630089,0.314819 -0.125992,0.06167 -0.251986,0.187665 -0.440974,0.376653 -0.188988,0.188987 -0.440972,0.440971 -0.629961,0.62996 -0.188988,0.188989 -0.31498,0.314981 -0.566699,0.441767 -0.251719,0.126786 -0.629694,0.252778 -0.945245,0.503765 -0.31555,0.250987 -0.567534,0.628963 -0.818949,0.881679 -0.251414,0.252716 -0.503398,0.378708 -0.755646,0.567167 -0.252249,0.188459 -0.504233,0.440445 -0.755953,0.629962 -0.251719,0.189517 -0.503702,0.315508 -0.631283,0.440972 -0.127581,0.125463 -0.127581,0.251455 -0.189783,0.440178 -0.0622,0.188723 -0.188194,0.440707 -0.251984,0.692955 -0.06379,0.252249 -0.06379,0.504233 -0.188459,0.756218 -0.12467,0.251984 -0.376653,0.503968 -0.503967,0.692957 -0.127315,0.188988 -0.127315,0.31498 -0.251984,0.503968 -0.124669,0.188988 -0.376653,0.440972 -0.503968,0.629959 -0.127315,0.188988 -0.127315,0.31498 -0.251984,0.503968 -0.124669,0.188988 -0.376655,0.440974 -0.566437,0.755689 -0.189782,0.314716 -0.315774,0.692692 -0.56856,0.441657 -0.252787,-0.251036 -0.630763,-1.132981 -1.008191,-2.013647"
       id="path142"
       inkscape:connector-curvature="0"
       inkscape:path-effect="#path-effect144"
       inkscape:original-d="m 97.517854,42.622022 c -1.63525,0.501322 -3.273147,1.00529 -4.913688,1.511906 -0.123347,0.123346 -0.249339,0.249338 -0.377976,0.377976 -0.37533,0.37533 -0.753306,0.753306 -1.13393,1.133927 -0.249338,0.123349 -0.501322,0.249341 -0.755952,0.377979 -0.249338,0.249338 -0.501322,0.501322 -0.755952,0.755951 -0.37533,0.249339 -0.753305,0.501322 -1.13393,0.755952 -0.123346,0.123346 -0.249338,0.249338 -0.377975,0.377976 -0.501322,0.123346 -1.00529,0.249338 -1.511904,0.377976 -0.501322,0.501324 -1.005292,1.005292 -1.511906,1.511906 -0.753305,0.37533 -1.509257,0.753305 -2.267857,1.133927 -0.123346,0.123349 -0.249338,0.249341 -0.377976,0.377978 -0.37533,0.37533 -0.753306,0.753306 -1.133927,1.133928 -0.249338,0.249338 -0.501322,0.501322 -0.755955,0.755952 -0.249338,0.123346 -0.501321,0.249338 -0.755951,0.377975 -0.501322,0.375333 -1.00529,0.753309 -1.511903,1.13393 -0.375333,0.123346 -0.753309,0.249338 -1.13393,0.377976 -0.753306,0.501322 -1.509258,1.00529 -2.267858,1.511906 -0.37533,0.123346 -0.753306,0.249338 -1.133927,0.377976 -0.37533,0.249338 -0.753306,0.501322 -1.13393,0.755952 -0.37533,0.249338 -0.753306,0.501321 -1.133928,0.755951 -0.627314,0.627317 -1.257273,1.257276 -1.889882,1.889882 -0.249338,0.123346 -0.501321,0.249338 -0.755951,0.377976 -0.123346,0.123346 -0.249338,0.249338 -0.377976,0.377975 -0.249338,0.123347 -0.501322,0.249338 -0.755952,0.377976 -0.24934,0.249341 -0.501324,0.501325 -0.755954,0.755954 -0.123346,0.123347 -0.249338,0.249339 -0.377976,0.377976 -0.249338,-0.0026 -0.501322,-0.0026 -0.755951,0 -0.249338,0.249338 -0.501322,0.501322 -0.755952,0.755952 -0.123346,-0.0026 -0.249341,-0.0026 -0.377978,0 -0.501322,0.501322 -1.00529,1.005292 -1.511904,1.511906 -0.37533,0.123346 -0.753305,0.249338 -1.13393,0.377976 -0.249338,0.249338 -0.501322,0.501322 -0.755951,0.755951 -0.249338,0.123346 -0.501322,0.249338 -0.755952,0.377976 -0.123346,0.123346 -0.249338,0.249338 -0.377976,0.377976 -0.627316,0.249341 -1.257276,0.501324 -1.889881,0.755954 -0.249338,0.501322 -0.501322,1.00529 -0.755952,1.511903 -0.37533,0.501325 -0.753308,1.005293 -1.13393,1.511906 -0.249338,0.501322 -0.501322,1.00529 -0.755952,1.511903 -0.37533,0.249341 -0.753305,0.501325 -1.133927,0.755955 -0.501325,0.37533 -1.005292,0.753305 -1.511906,1.133927 -0.123346,-0.0026 -0.249338,-0.0026 -0.377976,0 -0.123346,0.123346 -0.249338,0.249338 -0.377976,0.377976 -0.249338,0.123346 -0.501322,0.249338 -0.755954,0.377976 -0.627314,0.501324 -1.257273,1.005292 -1.889879,1.511906 -0.123346,-0.0026 -0.249338,-0.0026 -0.377976,0 -0.123346,0.123346 -0.24934,0.249338 -0.377978,0.377975 -0.249338,0.249338 -0.501322,0.501322 -0.755952,0.755952 -0.123346,0.123349 -0.249338,0.249341 -0.377976,0.377978 -0.37533,0.123347 -0.753305,0.249339 -1.133927,0.377976 -0.249341,0.37533 -0.501325,0.753306 -0.755954,1.133928 -0.249338,0.123346 -0.501322,0.249338 -0.755952,0.377976 -0.249338,0.249338 -0.501322,0.501324 -0.755952,0.755954 -0.249338,0.123346 -0.501321,0.249338 -0.755954,0.377976 0.0026,0.123346 0.0026,0.249338 0,0.377975 -0.123346,0.249338 -0.249338,0.501322 -0.377976,0.755952 0.0026,0.249338 0.0026,0.501322 0,0.755952 -0.249338,0.24934 -0.501321,0.501324 -0.755951,0.755954 0.0026,0.123346 0.0026,0.249338 0,0.377976 -0.249338,0.249338 -0.501322,0.501322 -0.755952,0.755951 0.0026,0.123346 0.0026,0.249338 0,0.377976 -0.249338,0.249338 -0.501322,0.501325 -0.755954,0.755954 -0.123346,0.37533 -0.249338,0.753306 -0.377976,1.133928 -0.37533,-0.88459 -0.753306,-1.766536 -1.133927,-2.645833"
       inkscape:export-xdpi="96"
       inkscape:export-ydpi="96" />
    <path
       style="fill:none;stroke:#000000;stroke-width:0.26458332px;stroke-linecap:butt;stroke-linejoin:miter;stroke-opacity:1"
       d="m 97.517854,42.622022 c 0.882163,0.756139 1.764108,1.512092 2.456751,2.267645 0.692645,0.755553 1.196615,1.511508 1.952865,2.330845 0.75625,0.819337 1.76418,1.701279 2.45705,2.331159 0.69286,0.62988 1.07083,1.007852 1.51202,1.385988 0.44119,0.378136 0.94515,0.756107 1.38591,1.133925 0.44077,0.377819 0.81874,0.755796 1.19702,1.07098 0.37828,0.315184 0.75626,0.567167 1.19692,0.944942 0.44067,0.377774 0.94464,0.881741 1.38641,1.196984 0.44176,0.315243 0.81974,0.441236 1.44916,0.819127 0.62941,0.377891 1.51136,1.00785 2.01481,1.448115 0.50345,0.440265 0.62945,0.692247 0.7557,0.881765 0.12626,0.189519 0.25225,0.315511 0.37798,0.50397 0.12573,0.188459 0.25172,0.440441 0.44097,0.692955 0.18925,0.252514 0.44124,0.504497 0.75622,0.819477 0.31498,0.31498 0.69295,0.692957 1.00793,1.007938 0.31498,0.31498 0.56697,0.566963 0.75728,0.692955 0.19031,0.125993 0.3163,0.125993 0.56727,0.252188 0.25097,0.126195 0.62894,0.37818 1.00692,0.630164 0.37798,0.251983 0.75595,0.503968 1.19662,0.881741 0.44067,0.377772 0.94463,0.881742 1.25961,1.196722 0.31498,0.31498 0.44098,0.44097 0.56829,0.503967 0.12732,0.063 0.25331,0.063 0.37798,0.125992 0.12466,0.063 0.25066,0.188987 0.50343,0.315244 0.25278,0.126256 0.63076,0.252249 0.88195,0.377975 0.25119,0.125726 0.37718,0.251723 0.62917,0.503708 0.25198,0.251986 0.62995,0.629959 1.00823,0.945142 0.37829,0.315183 0.75626,0.567168 1.07094,0.818949 0.31467,0.25178 0.56666,0.503767 1.13426,0.819019 0.5676,0.315252 1.44955,0.693229 2.01567,1.070626 0.56613,0.377398 0.81811,0.755372 1.07083,1.007927 0.25271,0.252554 0.50469,0.378545 0.88214,0.69326 0.37745,0.314715 0.88142,0.818683 1.25993,1.133929 0.3785,0.315246 0.63048,0.441237 0.81894,0.566966 0.18846,0.125729 0.31445,0.251721 0.56644,0.503706 0.25198,0.251985 0.62995,0.629959 0.88194,0.881943 0.25198,0.251984 0.37798,0.377975 0.56676,0.629654 0.18879,0.25168 0.44077,0.629654 0.75595,1.007935 0.31519,0.378281 0.69316,0.756261 1.00814,1.07124 0.31498,0.31498 0.56697,0.566968 0.81948,0.756219 0.25251,0.18925 0.5045,0.315245 0.81879,0.629749 0.31429,0.314504 0.69227,0.818471 1.07071,1.196863 0.37844,0.378393 0.75641,0.630374 1.07162,0.819423 0.3152,0.189048 0.56719,0.315043 0.94485,0.566921 0.37766,0.251878 0.88163,0.629854 1.19639,0.881679 0.31477,0.251825 0.44077,0.377816 0.63108,0.440812 0.19031,0.063 0.44229,0.063 0.69295,0.188989 0.25066,0.125992 0.50265,0.377975 0.69163,0.566963 0.18899,0.188989 0.31499,0.314979 0.5053,0.377976 0.19031,0.063 0.44229,0.063 0.62996,0.125993 0.18766,0.063 0.31365,0.188989 0.44097,0.251984 0.12731,0.063 0.2533,0.063 0.50476,0.126255 0.25145,0.06326 0.62943,0.189253 0.88195,0.251985 0.25251,0.06273 0.3785,0.06273 0.69237,0.251878 0.31387,0.189147 0.81784,0.567124 1.13393,0.755954 0.31609,0.188829 0.44208,0.188829 0.69407,0.188829 0.25198,0 0.62996,0 0.88062,0.06299 0.25066,0.063 0.37665,0.188992 0.50397,0.251987 0.12731,0.063 0.2533,0.063 0.2533,0.063 0,0 -0.12599,0 0.25176,0.06316 0.37776,0.06315 1.25969,0.189147 2.13939,0.314821"
       id="path146"
       inkscape:connector-curvature="0"
       inkscape:path-effect="#path-effect148"
       inkscape:original-d="m 97.517854,42.622022 c 0.884592,0.753306 1.766535,1.50926 2.645836,2.267858 0.50661,0.753306 1.01058,1.50926 1.5119,2.267857 1.01059,0.879298 2.01852,1.761244 3.02381,2.645834 0.38063,0.37533 0.7586,0.753305 1.13393,1.133927 0.50662,0.375333 1.01058,0.753308 1.51191,1.13393 0.38062,0.37533 0.7586,0.753306 1.13393,1.133928 0.38062,0.249338 0.75859,0.501324 1.13392,0.755954 0.50662,0.501322 1.01059,1.005289 1.51191,1.511903 0.38062,0.123346 0.7586,0.249338 1.13393,0.377976 0.88459,0.627316 1.76653,1.257276 2.64583,1.889882 0.12864,0.249338 0.25463,0.501321 0.37798,0.755951 0.12864,0.123346 0.25463,0.249338 0.37797,0.377976 0.12864,0.249341 0.25463,0.501324 0.37798,0.755954 0.25463,0.249338 0.50661,0.501322 0.75595,0.755952 0.38062,0.37533 0.7586,0.753306 1.13393,1.133927 0.25463,0.249341 0.50661,0.501325 0.75595,0.755954 0.12864,-0.0026 0.25463,-0.0026 0.37798,0 0.38062,0.249339 0.7586,0.501322 1.13393,0.755952 0.38062,0.249338 0.7586,0.501322 1.13393,0.755952 0.50661,0.501324 1.01058,1.005292 1.5119,1.511906 0.12864,0.123346 0.25463,0.249338 0.37798,0.377975 0.12864,-0.0026 0.25463,-0.0026 0.37797,0 0.12864,0.123347 0.25463,0.249338 0.37798,0.377976 0.38062,0.123346 0.7586,0.249338 1.13393,0.377976 0.12863,0.123346 0.25463,0.249338 0.37797,0.377976 0.38063,0.375332 0.7586,0.753308 1.13393,1.13393 0.38062,0.249338 0.7586,0.501322 1.13393,0.755952 0.25463,0.249338 0.50662,0.501321 0.75595,0.755951 0.88459,0.375333 1.76654,0.753309 2.64584,1.13393 0.25463,0.37533 0.50661,0.753306 0.75595,1.133928 0.25463,0.123346 0.50661,0.249338 0.75595,0.377975 0.50661,0.501325 1.01058,1.005293 1.51191,1.511906 0.25463,0.123346 0.50661,0.249338 0.75595,0.377976 0.12864,0.123346 0.25463,0.249338 0.37797,0.377976 0.38063,0.37533 0.7586,0.753308 1.13393,1.13393 0.12864,0.123346 0.25463,0.249338 0.37798,0.377976 0.25463,0.37533 0.50661,0.753306 0.75595,1.133927 0.38062,0.37533 0.7586,0.753309 1.13393,1.13393 0.25463,0.249338 0.50662,0.501322 0.75595,0.755952 0.25463,0.123346 0.50662,0.249338 0.75595,0.377976 0.38063,0.501322 0.7586,1.005292 1.13393,1.511906 0.38063,0.249338 0.7586,0.501321 1.13393,0.755951 0.25463,0.123346 0.50662,0.249338 0.75595,0.377976 0.50662,0.37533 1.01059,0.753306 1.51191,1.13393 0.12864,0.123346 0.25463,0.249338 0.37798,0.377976 0.25463,-0.0026 0.50661,-0.0026 0.75595,0 0.25463,0.249338 0.50661,0.501322 0.75595,0.755952 0.12864,0.123346 0.25463,0.249338 0.37798,0.377975 0.25463,-0.0026 0.50661,-0.0026 0.75595,0 0.12864,0.123346 0.25463,0.249338 0.37797,0.377976 0.12864,-0.0026 0.25463,-0.0026 0.37798,0 0.38062,0.123346 0.7586,0.249338 1.13393,0.377976 0.12864,-0.0026 0.25463,-0.0026 0.37798,0 0.50661,0.375333 1.01058,0.753308 1.5119,1.13393 0.12864,-0.0026 0.25463,-0.0026 0.37798,0 0.38062,-0.0026 0.7586,-0.0026 1.13393,0 0.12863,0.123346 0.25463,0.249338 0.37797,0.377976 0.12864,-0.0026 0.25463,-0.0026 0.37798,0 -0.12335,-0.0026 -0.24934,-0.0026 -0.37798,0 0.88457,0.123346 1.7665,0.249338 2.64578,0.377976"
       inkscape:export-xdpi="96"
       inkscape:export-ydpi="96" />
    <path
       style="fill:#ff0000;stroke-width:0.26458332"
       id="path150"
       d="m 95.649207,36.361211 c 1.267315,0.769244 2.392696,1.718524 3.443677,2.757291 1.182066,1.244227 2.001036,2.769545 2.969866,4.175514 0.63238,0.882179 1.16679,1.817159 1.61492,2.804195 0,0 -4.874717,2.746391 -4.874717,2.746391 v 0 c -0.418872,-0.963912 -0.925234,-1.877198 -1.519099,-2.745547 -0.925367,-1.389401 -1.719371,-2.889152 -2.900223,-4.086125 -1.040826,-0.998288 -2.147908,-1.926743 -3.43558,-2.595776 0,0 4.701156,-3.055943 4.701156,-3.055943 z"
       inkscape:connector-curvature="0"
       inkscape:export-xdpi="96"
       inkscape:export-ydpi="96" />
    <text
       xml:space="preserve"
       style="font-style:normal;font-weight:normal;font-size:10.58333302px;line-height:1.25;font-family:sans-serif;letter-spacing:0px;word-spacing:0px;fill:#000000;fill-opacity:1;stroke:none;stroke-width:0.26458332"
       x="27.59226"
       y="33.550594"
       id="text154"
       inkscape:export-xdpi="96"
       inkscape:export-ydpi="96"><tspan
         sodipodi:role="line"
         id="tspan152"
         x="27.59226"
         y="33.550594"
         style="stroke-width:0.26458332">v1</tspan></text>
    <text
       xml:space="preserve"
       style="font-style:normal;font-weight:normal;font-size:10.58333302px;line-height:1.25;font-family:sans-serif;letter-spacing:0px;word-spacing:0px;fill:#000000;fill-opacity:1;stroke:none;stroke-width:0.26458332"
       x="86.178574"
       y="30.90476"
       id="text158"
       inkscape:export-xdpi="96"
       inkscape:export-ydpi="96"><tspan
         sodipodi:role="line"
         id="tspan156"
         x="86.178574"
         y="30.90476"
         style="stroke-width:0.26458332">v2</tspan></text>
    <text
       xml:space="preserve"
       style="font-style:normal;font-weight:normal;font-size:10.58333302px;line-height:1.25;font-family:sans-serif;letter-spacing:0px;word-spacing:0px;fill:#000000;fill-opacity:1;stroke:none;stroke-width:0.26458332"
       x="147.03275"
       y="29.014879"
       id="text162"
       inkscape:export-xdpi="96"
       inkscape:export-ydpi="96"><tspan
         sodipodi:role="line"
         id="tspan160"
         x="147.03275"
         y="29.014879"
         style="stroke-width:0.26458332">v3</tspan></text>
    <text
       xml:space="preserve"
       style="font-style:normal;font-weight:normal;font-size:10.58333302px;line-height:1.25;font-family:sans-serif;letter-spacing:0px;word-spacing:0px;fill:#000000;fill-opacity:1;stroke:none;stroke-width:0.26458332"
       x="28.726189"
       y="91.758926"
       id="text166"
       inkscape:export-xdpi="96"
       inkscape:export-ydpi="96"><tspan
         sodipodi:role="line"
         id="tspan164"
         x="28.726189"
         y="91.758926"
         style="stroke-width:0.26458332">v4</tspan></text>
    <text
       xml:space="preserve"
       style="font-style:normal;font-weight:normal;font-size:10.58333302px;line-height:1.25;font-family:sans-serif;letter-spacing:0px;word-spacing:0px;fill:#000000;fill-opacity:1;stroke:none;stroke-width:0.26458332"
       x="91.470238"
       y="94.404755"
       id="text170"
       inkscape:export-xdpi="96"
       inkscape:export-ydpi="96"><tspan
         sodipodi:role="line"
         id="tspan168"
         x="91.470238"
         y="94.404755"
         style="stroke-width:0.26458332">v5</tspan></text>
    <text
       xml:space="preserve"
       style="font-style:normal;font-weight:normal;font-size:10.58333302px;line-height:1.25;font-family:sans-serif;letter-spacing:0px;word-spacing:0px;fill:#000000;fill-opacity:1;stroke:none;stroke-width:0.26458332"
       x="150.8125"
       y="94.404755"
       id="text174"
       inkscape:export-xdpi="96"
       inkscape:export-ydpi="96"><tspan
         sodipodi:role="line"
         id="tspan172"
         x="150.8125"
         y="94.404755"
         style="stroke-width:0.26458332">v6</tspan><tspan
         sodipodi:role="line"
         x="150.8125"
         y="107.63392"
         style="stroke-width:0.26458332"
         id="tspan176" /></text>
    <path
       style="fill:#0000ff;stroke-width:0.26458332"
       id="path178"
       d="m 99.742449,80.405792 c 0.430681,0.830752 1.158011,1.297051 2.013831,1.605724 0.80707,0.19607 1.62212,0.108479 2.40767,0.398894 0.64459,0.404643 1.21916,0.908428 1.76952,1.431184 0.30967,0.262234 0.5281,0.609029 0.7632,0.935297 0,0 -4.84242,2.857307 -4.84242,2.857307 v 0 c -0.20993,-0.29903 -0.41921,-0.603049 -0.69596,-0.845574 -0.49528,-0.459288 -0.9964,-0.946304 -1.622732,-1.220391 -0.806648,-0.185031 -1.664835,-0.105653 -2.43718,-0.447191 -0.902925,-0.427434 -1.683107,-1.000704 -2.199368,-1.877144 0,0 4.843439,-2.838106 4.843439,-2.838106 z"
       inkscape:connector-curvature="0"
       inkscape:export-xdpi="96"
       inkscape:export-ydpi="96" />
    <path
       style="fill:#ffff00;stroke-width:0.26458332"
       id="path180"
       d="m 34.369764,38.735391 c 0.922559,0.915276 1.623951,2.008116 2.313397,3.100316 0.728133,1.186881 1.628754,2.249503 2.563384,3.276201 0.662519,0.814072 1.346951,1.622816 2.193832,2.251273 0,0 -4.740383,2.981309 -4.740383,2.981309 v 0 c -0.829265,-0.693497 -1.523672,-1.520714 -2.209771,-2.352617 -0.941062,-1.060156 -1.849927,-2.155994 -2.59656,-3.364709 -0.67196,-1.057349 -1.364356,-2.121699 -2.311302,-2.958049 0,0 4.787403,-2.933724 4.787403,-2.933724 z"
       inkscape:connector-curvature="0"
       inkscape:export-xdpi="96"
       inkscape:export-ydpi="96" />
    <path
       style="fill:#ffff00;stroke-width:0.26458332"
       id="path182"
       d="m 152.2633,37.087347 c 0.36781,1.194535 0.73586,2.390452 1.04207,3.602516 0.21289,1.2651 0.90552,2.252959 1.6917,3.223969 0.69389,0.863685 1.35299,1.750015 1.80082,2.767928 0,0 -4.8876,2.739157 -4.8876,2.739157 v 0 c -0.38903,-0.989415 -1.01941,-1.833309 -1.68602,-2.654308 -0.82103,-1.03745 -1.57445,-2.096812 -1.81746,-3.431254 -0.28051,-1.192385 -0.6273,-2.374503 -1.0417,-3.526684 0,0 4.89819,-2.721324 4.89819,-2.721324 z"
       inkscape:connector-curvature="0"
       inkscape:export-xdpi="96"
       inkscape:export-ydpi="96" />
    <path
       style="fill:#00ff00;stroke-width:0.26458332"
       id="path184"
       d="m 38.920814,79.464936 c 1.133874,0.892657 2.209051,1.858801 3.429426,2.633726 0.987806,0.620676 1.871469,1.384464 2.78226,2.109047 0.575294,0.398251 0.297524,0.193106 0.834239,0.614169 0,0 -4.72681,2.975375 -4.72681,2.975375 v 0 C 40.71785,87.387852 40.992107,87.596505 40.415673,87.173249 39.517052,86.46276 38.642827,85.718485 37.681466,85.091862 36.481043,84.2745 35.406367,83.291327 34.193165,82.492 c 0,0 4.727649,-3.027064 4.727649,-3.027064 z"
       inkscape:connector-curvature="0"
       inkscape:export-xdpi="96"
       inkscape:export-ydpi="96" />
    <path
       style="fill:#00ff00;stroke-width:0.26458332"
       id="path186"
       d="m 156.45607,79.178842 c 0.98318,1.024499 1.99416,2.010701 2.80295,3.183067 0.63903,0.945441 0.94759,2.03064 1.2335,3.119753 0,0 -4.90872,2.658731 -4.90872,2.658731 v 0 c -0.25885,-1.029634 -0.52315,-2.067856 -1.11926,-2.964068 -0.77268,-1.161627 -1.76482,-2.129878 -2.79587,-3.063759 0,0 4.7874,-2.933724 4.7874,-2.933724 z"
       inkscape:connector-curvature="0"
       inkscape:export-xdpi="96"
       inkscape:export-ydpi="96" />
  </g>
</svg>
