<?xml version="1.0" encoding="UTF-8" standalone="no"?>
<!-- Created with Inkscape (http://www.inkscape.org/) -->

<svg
   xmlns:dc="http://purl.org/dc/elements/1.1/"
   xmlns:cc="http://creativecommons.org/ns#"
   xmlns:rdf="http://www.w3.org/1999/02/22-rdf-syntax-ns#"
   xmlns:svg="http://www.w3.org/2000/svg"
   xmlns="http://www.w3.org/2000/svg"
   xmlns:sodipodi="http://sodipodi.sourceforge.net/DTD/sodipodi-0.dtd"
   xmlns:inkscape="http://www.inkscape.org/namespaces/inkscape"
   width="210mm"
   height="297mm"
   viewBox="0 0 744.09448819 1052.3622047"
   id="svg2"
   version="1.1"
   inkscape:version="0.91 r13725"
   sodipodi:docname="q1c1.svg">
  <defs
     id="defs4" />
  <sodipodi:namedview
     id="base"
     pagecolor="#ffffff"
     bordercolor="#666666"
     borderopacity="1.0"
     inkscape:pageopacity="0.0"
     inkscape:pageshadow="2"
     inkscape:zoom="1.4"
     inkscape:cx="536.92375"
     inkscape:cy="644.80544"
     inkscape:document-units="px"
     inkscape:current-layer="layer1"
     showgrid="false"
     inkscape:window-width="1920"
     inkscape:window-height="1020"
     inkscape:window-x="0"
     inkscape:window-y="0"
     inkscape:window-maximized="1" />
  <metadata
     id="metadata7">
    <rdf:RDF>
      <cc:Work
         rdf:about="">
        <dc:format>image/svg+xml</dc:format>
        <dc:type
           rdf:resource="http://purl.org/dc/dcmitype/StillImage" />
        <dc:title></dc:title>
      </cc:Work>
    </rdf:RDF>
  </metadata>
  <g
     inkscape:label="Layer 1"
     inkscape:groupmode="layer"
     id="layer1">
    <path
       style="fill:none;fill-rule:evenodd;stroke:#000000;stroke-width:1px;stroke-linecap:butt;stroke-linejoin:miter;stroke-opacity:1"
       d="m 144.28571,208.07649 c 467.14286,0 471.42858,1.42857 471.42858,1.42857 l 1.42857,207.14286 -465.71429,0 z"
       id="path3340"
       inkscape:connector-curvature="0"
       inkscape:export-xdpi="90"
       inkscape:export-ydpi="90" />
    <path
       style="fill:none;fill-rule:evenodd;stroke:#000000;stroke-width:1px;stroke-linecap:butt;stroke-linejoin:miter;stroke-opacity:1"
       d="m 284.28571,415.21935 1.42858,-208.57143"
       id="path3342"
       inkscape:connector-curvature="0"
       inkscape:export-xdpi="90"
       inkscape:export-ydpi="90" />
    <path
       style="fill:none;fill-rule:evenodd;stroke:#000000;stroke-width:1px;stroke-linecap:butt;stroke-linejoin:miter;stroke-opacity:1"
       d="m 464.28571,415.21935 2.85715,-208.57143"
       id="path3344"
       inkscape:connector-curvature="0"
       inkscape:export-xdpi="90"
       inkscape:export-ydpi="90" />
    <circle
       id="path3586"
       style="fill:#000000;stroke:none"
       cx="144.28571"
       cy="205.93362"
       r="1.5"
       inkscape:export-xdpi="90"
       inkscape:export-ydpi="90" />
    <path
       style="fill:none;fill-rule:evenodd;stroke:#000000;stroke-width:1px;stroke-linecap:butt;stroke-linejoin:miter;stroke-opacity:1"
       d="m 143.57143,205.21935 c 139.28571,210 140,210.71428 140,210.71428 l 0,0 0,0 0,0"
       id="path3588"
       inkscape:connector-curvature="0"
       inkscape:export-xdpi="90"
       inkscape:export-ydpi="90" />
    <path
       style="fill:none;fill-rule:evenodd;stroke:#000000;stroke-width:1px;stroke-linecap:butt;stroke-linejoin:miter;stroke-opacity:1"
       d="M 151.42857,413.07649 C 285.71429,206.64792 285.71429,206.64792 285.71429,206.64792 c 177.14285,210 177.14285,209.28571 177.14285,209.28571"
       id="path3590"
       inkscape:connector-curvature="0"
       inkscape:export-xdpi="90"
       inkscape:export-ydpi="90" />
    <path
       style="fill:none;fill-rule:evenodd;stroke:#000000;stroke-width:1px;stroke-linecap:butt;stroke-linejoin:miter;stroke-opacity:1"
       d="M 286.42857,414.50506 C 467.14286,210.93363 467.14286,210.93363 467.14286,210.93363"
       id="path3592"
       inkscape:connector-curvature="0"
       inkscape:export-xdpi="90"
       inkscape:export-ydpi="90" />
    <path
       style="fill:none;fill-rule:evenodd;stroke:#000000;stroke-width:1px;stroke-linecap:butt;stroke-linejoin:miter;stroke-opacity:1"
       d="M 467.85714,205.93363 C 614.28571,414.50506 614.28571,414.50506 614.28571,414.50506"
       id="path3594"
       inkscape:connector-curvature="0"
       inkscape:export-xdpi="90"
       inkscape:export-ydpi="90" />
    <path
       style="fill:none;fill-rule:evenodd;stroke:#000000;stroke-width:1px;stroke-linecap:butt;stroke-linejoin:miter;stroke-opacity:1"
       d="m 466.42857,413.07649 c 150,-202.85714 150,-202.85714 150,-202.85714"
       id="path3596"
       inkscape:connector-curvature="0"
       inkscape:export-xdpi="90"
       inkscape:export-ydpi="90" />
    <text
       xml:space="preserve"
       style="font-style:normal;font-weight:normal;font-size:40px;line-height:125%;font-family:sans-serif;letter-spacing:0px;word-spacing:0px;fill:#000000;fill-opacity:1;stroke:none;stroke-width:1px;stroke-linecap:butt;stroke-linejoin:miter;stroke-opacity:1"
       x="128.57143"
       y="183.07649"
       id="text3598"
       sodipodi:linespacing="125%"
       inkscape:export-xdpi="90"
       inkscape:export-ydpi="90"><tspan
         sodipodi:role="line"
         id="tspan3600"
         x="128.57143"
         y="183.07649">v1</tspan></text>
    <text
       xml:space="preserve"
       style="font-style:normal;font-weight:normal;font-size:40px;line-height:125%;font-family:sans-serif;letter-spacing:0px;word-spacing:0px;fill:#000000;fill-opacity:1;stroke:none;stroke-width:1px;stroke-linecap:butt;stroke-linejoin:miter;stroke-opacity:1"
       x="267.14285"
       y="188.07649"
       id="text3602"
       sodipodi:linespacing="125%"
       inkscape:export-xdpi="90"
       inkscape:export-ydpi="90"><tspan
         sodipodi:role="line"
         id="tspan3604"
         x="267.14285"
         y="188.07649">v2</tspan></text>
    <text
       xml:space="preserve"
       style="font-style:normal;font-weight:normal;font-size:40px;line-height:125%;font-family:sans-serif;letter-spacing:0px;word-spacing:0px;fill:#000000;fill-opacity:1;stroke:none;stroke-width:1px;stroke-linecap:butt;stroke-linejoin:miter;stroke-opacity:1"
       x="460.71429"
       y="186.64792"
       id="text3606"
       sodipodi:linespacing="125%"
       inkscape:export-xdpi="90"
       inkscape:export-ydpi="90"><tspan
         sodipodi:role="line"
         id="tspan3608"
         x="460.71429"
         y="186.64792">v3</tspan></text>
    <text
       xml:space="preserve"
       style="font-style:normal;font-weight:normal;font-size:40px;line-height:125%;font-family:sans-serif;letter-spacing:0px;word-spacing:0px;fill:#000000;fill-opacity:1;stroke:none;stroke-width:1px;stroke-linecap:butt;stroke-linejoin:miter;stroke-opacity:1"
       x="604.28571"
       y="183.07649"
       id="text3610"
       sodipodi:linespacing="125%"
       inkscape:export-xdpi="90"
       inkscape:export-ydpi="90"><tspan
         sodipodi:role="line"
         id="tspan3612"
         x="604.28571"
         y="183.07649">v4</tspan></text>
    <text
       xml:space="preserve"
       style="font-style:normal;font-weight:normal;font-size:40px;line-height:125%;font-family:sans-serif;letter-spacing:0px;word-spacing:0px;fill:#000000;fill-opacity:1;stroke:none;stroke-width:1px;stroke-linecap:butt;stroke-linejoin:miter;stroke-opacity:1"
       x="118.57143"
       y="454.50507"
       id="text3614"
       sodipodi:linespacing="125%"
       inkscape:export-xdpi="90"
       inkscape:export-ydpi="90"><tspan
         sodipodi:role="line"
         id="tspan3616"
         x="118.57143"
         y="454.50507">v5</tspan></text>
    <text
       xml:space="preserve"
       style="font-style:normal;font-weight:normal;font-size:40px;line-height:125%;font-family:sans-serif;letter-spacing:0px;word-spacing:0px;fill:#000000;fill-opacity:1;stroke:none;stroke-width:1px;stroke-linecap:butt;stroke-linejoin:miter;stroke-opacity:1"
       x="257.85715"
       y="456.64792"
       id="text3618"
       sodipodi:linespacing="125%"
       inkscape:export-xdpi="90"
       inkscape:export-ydpi="90"><tspan
         sodipodi:role="line"
         id="tspan3620"
         x="257.85715"
         y="456.64792">v6</tspan></text>
    <text
       xml:space="preserve"
       style="font-style:normal;font-weight:normal;font-size:40px;line-height:125%;font-family:sans-serif;letter-spacing:0px;word-spacing:0px;fill:#000000;fill-opacity:1;stroke:none;stroke-width:1px;stroke-linecap:butt;stroke-linejoin:miter;stroke-opacity:1"
       x="445.71429"
       y="459.50507"
       id="text3622"
       sodipodi:linespacing="125%"
       inkscape:export-xdpi="90"
       inkscape:export-ydpi="90"><tspan
         sodipodi:role="line"
         id="tspan3624"
         x="445.71429"
         y="459.50507">v7</tspan></text>
    <text
       xml:space="preserve"
       style="font-style:normal;font-weight:normal;font-size:40px;line-height:125%;font-family:sans-serif;letter-spacing:0px;word-spacing:0px;fill:#000000;fill-opacity:1;stroke:none;stroke-width:1px;stroke-linecap:butt;stroke-linejoin:miter;stroke-opacity:1"
       x="600.71429"
       y="458.07648"
       id="text3626"
       sodipodi:linespacing="125%"
       inkscape:export-xdpi="90"
       inkscape:export-ydpi="90"><tspan
         sodipodi:role="line"
         id="tspan3628"
         x="600.71429"
         y="458.07648">v8</tspan></text>
    <path
       style="fill:#ff6600"
       id="path3687"
       d="m 280.76989,195.9384 c 1.81586,2.1434 3.64207,4.27959 5.58659,6.30783 1.83845,2.01402 3.77813,3.93654 5.70686,5.86393 1.82622,1.53777 3.26433,3.40408 4.70449,5.2874 0.87249,1.10292 0.45276,0.54717 1.26058,1.66619 0,0 -9.10752,5.37909 -9.10752,5.37909 l 0,0 c -0.777,-1.08908 -0.36686,-0.53939 -1.23411,-1.64633 -1.4058,-1.84878 -2.835,-3.65968 -4.60535,-5.18392 -1.92721,-1.93897 -3.86685,-3.87038 -5.70547,-5.89396 -1.94468,-2.06064 -3.76741,-4.22835 -5.69199,-6.30788 0,0 9.08592,-5.47235 9.08592,-5.47235 z"
       inkscape:connector-curvature="0"
       inkscape:export-xdpi="90"
       inkscape:export-ydpi="90" />
    <path
       style="fill:#00ff00"
       id="path3691"
       d="m 282.21226,400.34152 c 1.4869,2.17529 3.07056,4.25122 4.87213,6.17407 1.89283,1.57045 3.71187,3.23291 5.59219,4.82075 1.9536,1.60496 3.43136,3.62535 4.91216,5.64689 0.8549,1.20187 1.65249,2.43991 2.44842,3.68098 0,0 -9.13363,5.3267 -9.13363,5.3267 l 0,0 c -0.77702,-1.22728 -1.55064,-2.45477 -2.40567,-3.63036 -1.42095,-1.96525 -2.84907,-3.91623 -4.76504,-5.44333 -1.90202,-1.62648 -3.78858,-3.27566 -5.66964,-4.92253 -1.79838,-1.97433 -3.33961,-4.13052 -4.96444,-6.24475 0,0 9.11352,-5.40842 9.11352,-5.40842 z"
       inkscape:connector-curvature="0"
       inkscape:export-xdpi="90"
       inkscape:export-ydpi="90" />
    <path
       style="fill:#0000ff"
       id="path3697"
       d="m 453.03695,397.30649 c 2.87884,2.7746 5.85758,5.4395 8.84723,8.09322 2.45077,2.16167 4.83523,4.39728 7.18896,6.66379 1.70068,1.89264 3.72196,3.46284 5.63094,5.13722 1.66726,1.43073 3.22635,2.96034 4.65506,4.62714 0.81561,0.97574 1.50869,2.04408 2.22913,3.08961 0,0 -9.08628,5.34327 -9.08628,5.34327 l 0,0 c -0.69754,-1.01148 -1.37541,-2.04095 -2.17553,-2.97642 -1.44085,-1.59394 -2.953,-3.11062 -4.58428,-4.51326 -1.91431,-1.69243 -3.92513,-3.29506 -5.6467,-5.18953 -2.3112,-2.27548 -4.65255,-4.5202 -7.06652,-6.68704 -2.97878,-2.68259 -5.95683,-5.36822 -8.98457,-7.99468 0,0 8.99256,-5.59332 8.99256,-5.59332 z"
       inkscape:connector-curvature="0"
       inkscape:export-xdpi="90"
       inkscape:export-ydpi="90" />
    <path
       style="fill:#ffff00"
       id="path3699"
       d="m 462.41618,194.65662 c 3.55533,3.69651 7.50858,6.96457 11.35776,10.3412 2.31408,2.18326 4.77623,4.19575 7.1616,6.29819 1.16092,0.96126 2.15378,2.09075 3.07718,3.27492 0,0 -9.07559,5.41632 -9.07559,5.41632 l 0,0 c -0.89766,-1.1224 -1.84715,-2.20516 -2.9551,-3.12855 -2.36833,-2.10018 -4.75675,-4.17541 -7.02706,-6.38355 -3.84045,-3.4421 -7.739,-6.81966 -11.5475,-10.29799 0,0 9.00871,-5.52054 9.00871,-5.52054 z"
       inkscape:connector-curvature="0"
       inkscape:export-xdpi="90"
       inkscape:export-ydpi="90" />
    <path
       style="fill:#ffff00"
       id="path3701"
       d="m 143.79878,195.73448 c 2.3465,1.66378 5.02086,2.73002 7.54988,4.06354 2.07461,1.1077 3.79446,2.70605 5.49319,4.3045 2.3179,1.84327 3.44249,3.67924 4.73195,6.29393 0.90958,1.92039 1.85579,3.79672 3.12063,5.50854 0,0 -9.10518,5.38974 -9.10518,5.38974 l 0,0 c -1.2894,-1.77374 -2.26354,-3.70329 -3.17366,-5.69499 -0.26755,-0.5532 -0.86848,-1.82853 -1.18605,-2.3526 -0.87241,-1.43967 -2.17051,-2.45058 -3.36752,-3.60137 -1.64051,-1.52973 -3.33092,-3.02178 -5.33192,-4.07082 -2.56754,-1.34394 -5.21186,-2.54665 -7.64809,-4.13116 0,0 8.91677,-5.70931 8.91677,-5.70931 z"
       inkscape:connector-curvature="0"
       inkscape:export-xdpi="90"
       inkscape:export-ydpi="90" />
    <path
       style="fill:#0000ff"
       id="path3703"
       d="m 150.82949,402.64522 c 3.1073,1.32889 5.98719,3.01248 8.73362,4.97061 2.27136,1.63368 4.3334,3.50154 6.19503,5.58342 0.86725,0.84573 1.47067,1.88338 2.08093,2.9152 0,0 -9.13141,5.28832 -9.13141,5.28832 l 0,0 c -0.58166,-0.97027 -1.15956,-1.94078 -1.97463,-2.74124 -1.80709,-2.01607 -3.81584,-3.82733 -6.00648,-5.42356 -2.73571,-1.92898 -5.63999,-3.53178 -8.76042,-4.76097 0,0 8.86336,-5.83178 8.86336,-5.83178 z"
       inkscape:connector-curvature="0"
       inkscape:export-xdpi="90"
       inkscape:export-ydpi="90" />
    <path
       style="fill:#ff5555"
       id="path3705"
       d="m 609.46552,199.44934 c 2.11497,1.95083 4.42692,3.67033 6.58866,5.56946 2.29912,1.76592 4.15128,4.00836 6.06272,6.16687 1.21681,1.29022 2.36989,2.63306 3.50821,3.9922 0,0 -9.0351,5.4261 -9.0351,5.4261 l 0,0 c -1.12718,-1.35302 -2.28023,-2.68113 -3.47707,-3.97337 -1.89117,-2.12095 -3.70845,-4.3302 -5.99201,-6.05299 -2.18189,-1.88663 -4.44169,-3.67744 -6.64797,-5.53494 0,0 8.99256,-5.59333 8.99256,-5.59333 z"
       inkscape:connector-curvature="0"
       inkscape:export-xdpi="90"
       inkscape:export-ydpi="90" />
    <path
       style="fill:#00ff00"
       id="path3707"
       d="m 615.74016,406.31249 c 1.41197,2.97594 2.84838,5.95607 4.8173,8.60859 1.37349,1.81527 3.20207,3.17527 4.93461,4.62021 2.48637,2.34264 5.3202,4.24655 8.17799,6.10015 1.72554,1.11097 3.53421,2.0785 5.30258,3.11772 0,0 -8.77412,5.68548 -8.77412,5.68548 l 0,0 c -1.76714,-1.04962 -3.55463,-2.06625 -5.27898,-3.18618 -2.89978,-1.89011 -5.83788,-3.75684 -8.38668,-6.11609 -1.7938,-1.50089 -3.66195,-2.94419 -5.0325,-4.86909 -1.92862,-2.74759 -3.36748,-5.77536 -4.95754,-8.72397 0,0 9.19734,-5.23682 9.19734,-5.23682 z"
       inkscape:connector-curvature="0"
       inkscape:export-xdpi="90"
       inkscape:export-ydpi="90" />
  </g>
</svg>
